<?xml version="1.0"?>
<svg version="1.1" xmlns="http://www.w3.org/2000/svg" xmlns:xlink="http://www.w3.org/1999/xlink" width="800" height="700">
    <desc iVinci="yes" version="4.5" gridStep="20" showGrid="no" snapToGrid="no" codePlatform="0"/>
    <g id="Layer1" opacity="1">
        <g id="Shape1">
            <desc shapeID="1" type="0" basicInfo-basicType="0" basicInfo-roundedRectRadius="12" basicInfo-polygonSides="6" basicInfo-starPoints="5" bounding="rect(-48.1,-25,96.2,50)" text="" font-familyName="" font-pixelSize="20" font-bold="0" font-underline="0" font-alignment="1" strokeStyle="0" markerStart="0" markerEnd="0" shadowEnabled="0" shadowOffsetX="0" shadowOffsetY="2" shadowBlur="4" shadowOpacity="160" blurEnabled="0" blurRadius="4" transform="matrix(1,0,0,1,321.6,143.713)" pers-center="0,0" pers-size="0,0" pers-start="0,0" pers-end="0,0" locked="0" mesh="" flag=""/>
            <path id="shapePath1" d="M273.5,118.713 L369.7,118.713 L369.7,168.713 L273.5,168.713 L273.5,118.713 Z" style="stroke:#404040;stroke-opacity:1;stroke-width:4;stroke-linejoin:round;stroke-miterlimit:2;stroke-linecap:butt;fill-rule:nonzero;fill:#b3e3ff;fill-opacity:1;"/>
        </g>
        <g id="Shape2">
            <desc shapeID="2" type="0" basicInfo-basicType="0" basicInfo-roundedRectRadius="12" basicInfo-polygonSides="6" basicInfo-starPoints="5" bounding="rect(-24.9,-5.40001,49.8,10.8)" text="" font-familyName="" font-pixelSize="20" font-bold="0" font-underline="0" font-alignment="1" strokeStyle="0" markerStart="0" markerEnd="0" shadowEnabled="0" shadowOffsetX="0" shadowOffsetY="2" shadowBlur="4" shadowOpacity="160" blurEnabled="0" blurRadius="4" transform="matrix(1,0,0,1,323.1,144.513)" pers-center="0,0" pers-size="0,0" pers-start="0,0" pers-end="0,0" locked="0" mesh="" flag=""/>
            <path id="shapePath2" d="M308.2,149.713 L308.2,141.413 L304.6,149.713 L303.3,149.713 L299.7,141.413 L299.7,149.713 L298.2,149.713 L298.2,139.113 L300.2,139.113 L303.9,147.813 L307.7,139.113 L309.7,139.113 L309.7,149.713 L308.2,149.713 M314.6,145.513 L316.5,145.213 C316.9,145.113 317.1,144.913 317.1,144.713 C317.1,144.013 316.6,143.413 315.5,143.413 C314.5,143.413 314,144.013 313.9,144.913 L312.5,144.613 C312.7,143.213 313.9,142.313 315.5,142.313 C317.7,142.313 318.5,143.513 318.5,144.913 L318.5,148.513 C318.5,149.113 318.6,149.513 318.6,149.713 L317.2,149.713 C317.2,149.513 317.1,149.213 317.1,148.713 C316.8,149.213 316.1,149.913 314.8,149.913 C313.3,149.913 312.4,148.913 312.4,147.713 C312.4,146.413 313.4,145.713 314.6,145.513 M317.1,146.613 L317.1,146.313 L314.9,146.613 C314.3,146.713 313.9,147.013 313.9,147.713 C313.9,148.213 314.3,148.713 315.1,148.713 C316.2,148.713 317.1,148.213 317.1,146.613 M322.1,147.313 C322.2,148.113 322.8,148.613 323.8,148.613 C324.6,148.613 325,148.113 325,147.613 C325,147.113 324.7,146.813 324.1,146.713 L322.9,146.413 C321.8,146.213 321.1,145.413 321.1,144.413 C321.1,143.213 322.3,142.113 323.7,142.113 C325.7,142.113 326.3,143.413 326.4,144.013 L325.2,144.513 C325.1,144.113 324.8,143.313 323.7,143.313 C323,143.313 322.5,143.813 322.5,144.313 C322.5,144.713 322.8,145.113 323.3,145.213 L324.5,145.513 C325.8,145.813 326.5,146.613 326.5,147.613 C326.5,148.613 325.6,149.813 323.9,149.813 C321.9,149.813 321.1,148.513 321,147.713 L322.1,147.313 M330.9,142.513 L332.5,142.513 L332.5,143.813 L330.9,143.813 L330.9,147.613 C330.9,148.313 331.2,148.613 331.9,148.613 C332.1,148.613 332.3,148.613 332.5,148.513 L332.5,149.713 C332.4,149.713 332,149.813 331.5,149.813 C330.3,149.813 329.5,149.013 329.5,147.713 L329.5,143.713 L328.1,143.713 L328.1,142.413 L328.5,142.413 C329.3,142.413 329.6,141.913 329.6,141.313 L329.6,140.113 L330.9,140.113 L330.9,142.513 M341.3,147.613 C340.9,148.913 339.7,149.913 338.1,149.913 C336.2,149.913 334.5,148.513 334.5,146.013 C334.5,143.713 336.1,142.213 337.9,142.213 C340.1,142.213 341.4,143.713 341.4,146.013 L341.4,146.413 L336,146.413 C336,147.713 337,148.613 338.2,148.613 C339.4,148.613 340,148.013 340.2,147.113 L341.3,147.613 M339.9,145.313 C339.9,144.313 339.2,143.513 337.9,143.513 C336.7,143.513 336,144.413 335.9,145.313 L339.9,145.313 M347.9,143.913 L347.3,143.913 C346.1,143.913 345.3,144.513 345.3,146.113 L345.3,149.713 L343.9,149.713 L343.9,142.513 L345.3,142.513 L345.3,143.813 C345.8,142.713 346.7,142.413 347.5,142.413 L348,142.413 L348,143.913 L347.9,143.913 Z" style="stroke:none;fill-rule:nonzero;fill:#404040;fill-opacity:1;"/>
        </g>
        <g id="Shape3">
            <desc shapeID="3" type="0" basicInfo-basicType="0" basicInfo-roundedRectRadius="12" basicInfo-polygonSides="6" basicInfo-starPoints="5" bounding="rect(-219.95,-41,439.9,82)" text="" font-familyName="" font-pixelSize="20" font-bold="0" font-underline="0" font-alignment="1" strokeStyle="0" markerStart="0" markerEnd="0" shadowEnabled="0" shadowOffsetX="0" shadowOffsetY="2" shadowBlur="4" shadowOpacity="160" blurEnabled="0" blurRadius="4" transform="matrix(1,0,0,1,395.95,218.213)" pers-center="0,0" pers-size="0,0" pers-start="0,0" pers-end="0,0" locked="0" mesh="" flag=""/>
            <path id="shapePath3" d="M321.6,214.313 L321.6,190.813 M332.4,205.613 L321.6,216.513 L310.7,205.613 M615.9,177.213 L532.9,177.213 L574.1,177.213 M419.2,218.213 C419.2,240.813 400.8,259.213 378.2,259.213 L176,259.213 M419.2,218.213 C419.2,195.613 437.6,177.213 460.2,177.213 L490.9,177.213 " style="stroke:#404040;stroke-opacity:1;stroke-width:4;stroke-linejoin:round;stroke-miterlimit:2;stroke-linecap:round;fill:none;"/>
        </g>
        <g id="Shape4">
            <desc shapeID="4" type="0" basicInfo-basicType="0" basicInfo-roundedRectRadius="12" basicInfo-polygonSides="6" basicInfo-starPoints="5" bounding="rect(-21,-21,42,42)" text="" font-familyName="" font-pixelSize="20" font-bold="0" font-underline="0" font-alignment="1" strokeStyle="0" markerStart="0" markerEnd="0" shadowEnabled="0" shadowOffsetX="0" shadowOffsetY="2" shadowBlur="4" shadowOpacity="160" blurEnabled="0" blurRadius="4" transform="matrix(1,0,0,1,321.6,259.213)" pers-center="0,0" pers-size="0,0" pers-start="0,0" pers-end="0,0" locked="0" mesh="" flag=""/>
            <path id="shapePath4" d="M342.6,259.213 C342.6,270.811 333.198,280.213 321.6,280.213 C310.002,280.213 300.6,270.811 300.6,259.213 C300.6,247.615 310.002,238.213 321.6,238.213 C333.198,238.213 342.6,247.615 342.6,259.213 Z" style="stroke:#404040;stroke-opacity:1;stroke-width:4;stroke-linejoin:round;stroke-miterlimit:2;stroke-linecap:butt;fill-rule:evenodd;fill:#59afe1;fill-opacity:1;"/>
        </g>
        <g id="Shape5">
            <desc shapeID="5" type="0" basicInfo-basicType="0" basicInfo-roundedRectRadius="12" basicInfo-polygonSides="6" basicInfo-starPoints="5" bounding="rect(-21,-21,42,42)" text="" font-familyName="" font-pixelSize="20" font-bold="0" font-underline="0" font-alignment="1" strokeStyle="0" markerStart="0" markerEnd="0" shadowEnabled="0" shadowOffsetX="0" shadowOffsetY="2" shadowBlur="4" shadowOpacity="160" blurEnabled="0" blurRadius="4" transform="matrix(1,0,0,1,511.9,177.213)" pers-center="0,0" pers-size="0,0" pers-start="0,0" pers-end="0,0" locked="0" mesh="" flag=""/>
            <path id="shapePath5" d="M532.9,177.213 C532.9,188.811 523.498,198.213 511.9,198.213 C500.302,198.213 490.9,188.811 490.9,177.213 C490.9,165.615 500.302,156.213 511.9,156.213 C523.498,156.213 532.9,165.615 532.9,177.213 Z" style="stroke:#404040;stroke-opacity:1;stroke-width:4;stroke-linejoin:round;stroke-miterlimit:2;stroke-linecap:round;fill-rule:evenodd;fill:#ffffff;fill-opacity:1;"/>
        </g>
        <g id="Shape6">
            <desc shapeID="6" type="0" basicInfo-basicType="0" basicInfo-roundedRectRadius="12" basicInfo-polygonSides="6" basicInfo-starPoints="5" bounding="rect(-21,-21,42,42)" text="" font-familyName="" font-pixelSize="20" font-bold="0" font-underline="0" font-alignment="1" strokeStyle="0" markerStart="0" markerEnd="0" shadowEnabled="0" shadowOffsetX="0" shadowOffsetY="2" shadowBlur="4" shadowOpacity="160" blurEnabled="0" blurRadius="4" transform="matrix(1,0,0,1,595.1,177.213)" pers-center="0,0" pers-size="0,0" pers-start="0,0" pers-end="0,0" locked="0" mesh="" flag=""/>
            <path id="shapePath6" d="M616.1,177.213 C616.1,188.811 606.698,198.213 595.1,198.213 C583.502,198.213 574.1,188.811 574.1,177.213 C574.1,165.615 583.502,156.213 595.1,156.213 C606.698,156.213 616.1,165.615 616.1,177.213 Z" style="stroke:#404040;stroke-opacity:1;stroke-width:4;stroke-linejoin:round;stroke-miterlimit:2;stroke-linecap:round;fill-rule:evenodd;fill:#ffffff;fill-opacity:1;"/>
        </g>
        <g id="Shape7">
            <desc shapeID="7" type="0" basicInfo-basicType="0" basicInfo-roundedRectRadius="12" basicInfo-polygonSides="6" basicInfo-starPoints="5" bounding="rect(-21,-21,42,42)" text="" font-familyName="" font-pixelSize="20" font-bold="0" font-underline="0" font-alignment="1" strokeStyle="0" markerStart="0" markerEnd="0" shadowEnabled="0" shadowOffsetX="0" shadowOffsetY="2" shadowBlur="4" shadowOpacity="160" blurEnabled="0" blurRadius="4" transform="matrix(1,0,0,1,238.3,259.213)" pers-center="0,0" pers-size="0,0" pers-start="0,0" pers-end="0,0" locked="0" mesh="" flag=""/>
            <path id="shapePath7" d="M259.3,259.213 C259.3,270.811 249.898,280.213 238.3,280.213 C226.702,280.213 217.3,270.811 217.3,259.213 C217.3,247.615 226.702,238.213 238.3,238.213 C249.898,238.213 259.3,247.615 259.3,259.213 Z" style="stroke:#404040;stroke-opacity:1;stroke-width:4;stroke-linejoin:round;stroke-miterlimit:2;stroke-linecap:round;fill-rule:evenodd;fill:#ffffff;fill-opacity:1;"/>
        </g>
        <g id="Shape8">
            <desc shapeID="8" type="0" basicInfo-basicType="0" basicInfo-roundedRectRadius="12" basicInfo-polygonSides="6" basicInfo-starPoints="5" bounding="rect(-21,-21,42,42)" text="" font-familyName="" font-pixelSize="20" font-bold="0" font-underline="0" font-alignment="1" strokeStyle="0" markerStart="0" markerEnd="0" shadowEnabled="0" shadowOffsetX="0" shadowOffsetY="2" shadowBlur="4" shadowOpacity="160" blurEnabled="0" blurRadius="4" transform="matrix(1,0,0,1,155.1,259.213)" pers-center="0,0" pers-size="0,0" pers-start="0,0" pers-end="0,0" locked="0" mesh="" flag=""/>
            <path id="shapePath8" d="M176.1,259.213 C176.1,270.811 166.698,280.213 155.1,280.213 C143.502,280.213 134.1,270.811 134.1,259.213 C134.1,247.615 143.502,238.213 155.1,238.213 C166.698,238.213 176.1,247.615 176.1,259.213 Z" style="stroke:#404040;stroke-opacity:1;stroke-width:4;stroke-linejoin:round;stroke-miterlimit:2;stroke-linecap:round;fill-rule:evenodd;fill:#ffffff;fill-opacity:1;"/>
        </g>
        <g id="Shape9">
            <desc shapeID="9" type="0" basicInfo-basicType="0" basicInfo-roundedRectRadius="12" basicInfo-polygonSides="6" basicInfo-starPoints="5" bounding="rect(-70.8,-25,141.6,50)" text="" font-familyName="" font-pixelSize="20" font-bold="0" font-underline="0" font-alignment="1" strokeStyle="0" markerStart="0" markerEnd="0" shadowEnabled="0" shadowOffsetX="0" shadowOffsetY="2" shadowBlur="4" shadowOpacity="160" blurEnabled="0" blurRadius="4" transform="matrix(1,0,0,1,595.1,66.3127)" pers-center="0,0" pers-size="0,0" pers-start="0,0" pers-end="0,0" locked="0" mesh="" flag=""/>
            <path id="shapePath9" d="M524.3,41.3127 L665.9,41.3127 L665.9,91.3127 L524.3,91.3127 L524.3,41.3127 Z" style="stroke:#404040;stroke-opacity:1;stroke-width:4;stroke-linejoin:round;stroke-miterlimit:2;stroke-linecap:round;fill-rule:nonzero;fill:#b18be8;fill-opacity:1;"/>
        </g>
        <g id="Shape10">
            <desc shapeID="10" type="0" basicInfo-basicType="0" basicInfo-roundedRectRadius="12" basicInfo-polygonSides="6" basicInfo-starPoints="5" bounding="rect(-50.15,-5.6,100.3,11.2)" text="" font-familyName="" font-pixelSize="20" font-bold="0" font-underline="0" font-alignment="1" strokeStyle="0" markerStart="0" markerEnd="0" shadowEnabled="0" shadowOffsetX="0" shadowOffsetY="2" shadowBlur="4" shadowOpacity="160" blurEnabled="0" blurRadius="4" transform="matrix(1,0,0,1,596.05,67.0126)" pers-center="0,0" pers-size="0,0" pers-start="0,0" pers-end="0,0" locked="0" mesh="" flag=""/>
            <path id="shapePath10" d="M552.1,64.6127 C552,63.8127 551.3,62.8127 549.9,62.8127 C548.7,62.8127 547.8,63.6127 547.8,64.6127 C547.8,65.4127 548.3,65.9127 549.2,66.1127 L550.8,66.4127 C552.6,66.8127 553.6,67.9127 553.6,69.4127 C553.6,71.0126 552.2,72.5126 549.9,72.5126 C547.3,72.5126 546.1,70.9127 545.9,69.3127 L547.3,68.9127 C547.4,70.1127 548.2,71.2126 549.8,71.2126 C551.3,71.2126 552,70.4127 552,69.5126 C552,68.7127 551.5,68.1127 550.4,67.8127 L548.9,67.5126 C547.4,67.2127 546.3,66.2127 546.3,64.6127 C546.3,62.9127 547.8,61.4127 549.8,61.4127 C552.2,61.4127 553.2,62.9127 553.4,64.0126 L552.1,64.6127 M562.8,68.7127 C562.8,70.9127 561.3,72.5126 559.1,72.5126 C556.9,72.5126 555.4,70.9127 555.4,68.7127 C555.4,66.5126 556.9,64.9127 559.1,64.9127 C561.3,64.9127 562.8,66.5126 562.8,68.7127 M561.4,68.7127 C561.4,67.0126 560.3,66.1127 559.2,66.1127 C558.1,66.1127 557,67.0126 557,68.7127 C557,70.4127 558.1,71.3127 559.2,71.3127 C560.3,71.3127 561.4,70.4127 561.4,68.7127 M565.3,72.3127 L565.3,65.1127 L566.6,65.1127 L566.6,66.1127 C567.1,65.3127 568,64.9127 568.8,64.9127 C569.7,64.9127 570.6,65.3127 571,66.3127 C571.6,65.3127 572.5,64.9127 573.4,64.9127 C574.7,64.9127 575.9,65.8127 575.9,67.6127 L575.9,72.3127 L574.5,72.3127 L574.5,67.8127 C574.5,66.9127 574,66.2127 573,66.2127 C572,66.2127 571.3,67.0126 571.3,68.0126 L571.3,72.4127 L570,72.4127 L570,67.8127 C570,66.9127 569.6,66.2127 568.5,66.2127 C567.5,66.2127 566.8,67.0126 566.8,68.0126 L566.8,72.3127 L565.3,72.3127 M585.2,70.3127 C584.8,71.6127 583.6,72.6127 582,72.6127 C580.1,72.6127 578.4,71.2126 578.4,68.7127 C578.4,66.4127 580,64.9127 581.8,64.9127 C584,64.9127 585.3,66.4127 585.3,68.7127 L585.3,69.2127 L579.9,69.2127 C579.9,70.5126 580.9,71.4127 582.1,71.4127 C583.3,71.4127 583.9,70.8127 584.1,69.9127 L585.2,70.3127 M583.8,68.0126 C583.8,67.0126 583.1,66.2127 581.8,66.2127 C580.6,66.2127 579.9,67.1127 579.8,68.0126 L583.8,68.0126 M592.5,72.3127 L592.5,61.7127 L599,61.7127 L599,63.1127 L594,63.1127 L594,66.5126 L598.5,66.5126 L598.5,67.9127 L594,67.9127 L594,72.4127 L592.5,72.4127 L592.5,72.3127 M607.1,70.3127 C606.7,71.6127 605.5,72.6127 603.9,72.6127 C602,72.6127 600.3,71.2126 600.3,68.7127 C600.3,66.4127 601.9,64.9127 603.7,64.9127 C605.9,64.9127 607.2,66.4127 607.2,68.7127 L607.2,69.2127 L601.8,69.2127 C601.8,70.5126 602.8,71.4127 604,71.4127 C605.2,71.4127 605.8,70.8127 606,69.9127 L607.1,70.3127 M605.7,68.0126 C605.7,67.0126 605,66.2127 603.7,66.2127 C602.5,66.2127 601.8,67.1127 601.7,68.0126 L605.7,68.0126 M611.4,68.2127 L613.3,67.9127 C613.7,67.8127 613.9,67.6127 613.9,67.4127 C613.9,66.7127 613.4,66.1127 612.3,66.1127 C611.3,66.1127 610.8,66.7127 610.7,67.6127 L609.3,67.3127 C609.5,65.9127 610.7,65.0126 612.3,65.0126 C614.5,65.0126 615.3,66.2127 615.3,67.6127 L615.3,71.2126 C615.3,71.8127 615.4,72.2126 615.4,72.4127 L614,72.4127 C614,72.2126 613.9,71.9127 613.9,71.4127 C613.6,71.9127 612.9,72.6127 611.6,72.6127 C610.1,72.6127 609.2,71.6127 609.2,70.4127 C609.3,69.1127 610.2,68.4127 611.4,68.2127 M613.9,69.3127 L613.9,69.0126 L611.7,69.3127 C611.1,69.4127 610.6,69.7127 610.6,70.4127 C610.6,70.9127 611,71.4127 611.8,71.4127 C613,71.4127 613.9,70.8127 613.9,69.3127 M620.2,65.1127 L621.8,65.1127 L621.8,66.4127 L620.2,66.4127 L620.2,70.2126 C620.2,70.9127 620.5,71.2126 621.2,71.2126 C621.4,71.2126 621.6,71.2126 621.8,71.1127 L621.8,72.3127 C621.7,72.3127 621.3,72.4127 620.8,72.4127 C619.6,72.4127 618.8,71.6127 618.8,70.3127 L618.8,66.3127 L617.4,66.3127 L617.4,65.0126 L617.8,65.0126 C618.6,65.0126 618.9,64.5126 618.9,63.9127 L618.9,62.8127 L620.2,62.8127 L620.2,65.1127 M627,72.6127 C625.3,72.6127 624.3,71.3127 624.3,69.7127 L624.3,65.2127 L625.7,65.2127 L625.7,69.5126 C625.7,70.5126 626.1,71.4127 627.3,71.4127 C628.4,71.4127 629,70.6127 629,69.6127 L629,65.3127 L630.4,65.3127 L630.4,71.2126 C630.4,71.8127 630.4,72.3127 630.5,72.5126 L629.1,72.5126 C629.1,72.3127 629,71.9127 629,71.6127 C628.7,72.2126 627.8,72.6127 627,72.6127 M637.6,66.6127 L637,66.6127 C635.8,66.6127 635,67.2127 635,68.8127 L635,72.4127 L633.6,72.4127 L633.6,65.2127 L635,65.2127 L635,66.5126 C635.5,65.4127 636.4,65.1127 637.2,65.1127 L637.7,65.1127 L637.7,66.6127 L637.6,66.6127 M646.1,70.3127 C645.7,71.6127 644.5,72.6127 642.9,72.6127 C641,72.6127 639.3,71.2126 639.3,68.7127 C639.3,66.4127 640.9,64.9127 642.7,64.9127 C644.9,64.9127 646.2,66.4127 646.2,68.7127 L646.2,69.2127 L640.8,69.2127 C640.8,70.5126 641.8,71.4127 643,71.4127 C644.2,71.4127 644.8,70.8127 645,69.9127 L646.1,70.3127 M644.7,68.0126 C644.7,67.0126 644,66.2127 642.7,66.2127 C641.5,66.2127 640.8,67.1127 640.7,68.0126 L644.7,68.0126 Z" style="stroke:none;fill-rule:nonzero;fill:#404040;fill-opacity:1;"/>
        </g>
        <g id="Shape11">
            <desc shapeID="11" type="0" basicInfo-basicType="0" basicInfo-roundedRectRadius="12" basicInfo-polygonSides="6" basicInfo-starPoints="5" bounding="rect(-10.9,-12.85,21.8,25.7)" text="" font-familyName="" font-pixelSize="20" font-bold="0" font-underline="0" font-alignment="1" strokeStyle="0" markerStart="0" markerEnd="0" shadowEnabled="0" shadowOffsetX="0" shadowOffsetY="2" shadowBlur="4" shadowOpacity="160" blurEnabled="0" blurRadius="4" transform="matrix(1,0,0,1,595.1,123.863)" pers-center="0,0" pers-size="0,0" pers-start="0,0" pers-end="0,0" locked="0" mesh="" flag=""/>
            <path id="shapePath11" d="M595.1,134.513 L595.1,111.013 M606,125.813 L595.1,136.713 L584.2,125.813 " style="stroke:#404040;stroke-opacity:1;stroke-width:4;stroke-linejoin:round;stroke-miterlimit:2;stroke-linecap:round;fill:none;"/>
        </g>
        <g id="Shape12">
            <desc shapeID="12" type="0" basicInfo-basicType="0" basicInfo-roundedRectRadius="12" basicInfo-polygonSides="6" basicInfo-starPoints="5" bounding="rect(-270.7,0,541.4,0)" text="" font-familyName="" font-pixelSize="20" font-bold="0" font-underline="0" font-alignment="1" strokeStyle="0" markerStart="0" markerEnd="0" shadowEnabled="0" shadowOffsetX="0" shadowOffsetY="2" shadowBlur="4" shadowOpacity="160" blurEnabled="0" blurRadius="4" transform="matrix(1,0,0,1,400,318.26)" pers-center="0,0" pers-size="0,0" pers-start="0,0" pers-end="0,0" locked="0" mesh="" flag=""/>
            <path id="shapePath12" d="M129.3,318.26 L670.7,318.26 " style="stroke:#cccccc;stroke-opacity:1;stroke-width:1;stroke-linejoin:round;stroke-miterlimit:2;stroke-linecap:round;fill:none;"/>
        </g>
        <g id="Shape13">
            <desc shapeID="13" type="0" basicInfo-basicType="0" basicInfo-roundedRectRadius="12" basicInfo-polygonSides="6" basicInfo-starPoints="5" bounding="rect(-56.35,-7.05,112.7,14.1)" text="" font-familyName="" font-pixelSize="20" font-bold="0" font-underline="0" font-alignment="1" strokeStyle="0" markerStart="0" markerEnd="0" shadowEnabled="0" shadowOffsetX="0" shadowOffsetY="2" shadowBlur="4" shadowOpacity="160" blurEnabled="0" blurRadius="4" transform="matrix(1,0,0,1,399.75,23.85)" pers-center="0,0" pers-size="0,0" pers-start="0,0" pers-end="0,0" locked="0" mesh="" flag=""/>
            <path id="shapePath13" d="M346.9,17.1 C348.9,17.1 350.1,18.3 350.1,20 C350.1,21.1 349.4,22 348.5,22.3 C349.7,22.6 350.4,23.7 350.4,24.9 C350.4,26.6 349.1,27.8 347.1,27.8 L343.4,27.8 L343.4,17.1 L346.9,17.1 M346.8,21.8 C348,21.8 348.7,21.1 348.7,20.1 C348.7,19.1 348,18.4 346.8,18.4 L345,18.4 L345,21.8 L346.8,21.8 M347,26.5 C348.2,26.5 349,25.8 349,24.8 C349,23.8 348.4,23.1 347.1,23.1 L345,23.1 L345,26.5 L347,26.5 M359.4,25.7 C359,27 357.8,28 356.2,28 C354.3,28 352.6,26.6 352.6,24.1 C352.6,21.8 354.2,20.3 356,20.3 C358.2,20.3 359.5,21.8 359.5,24.1 L359.5,24.5 L354,24.5 C354,25.8 355,26.7 356.2,26.7 C357.4,26.7 358,26.1 358.2,25.2 L359.4,25.7 M358,23.4 C358,22.4 357.3,21.6 356,21.6 C354.8,21.6 354.1,22.5 354,23.4 L358,23.4 M363.9,21.8 L363.9,27.7 L362.4,27.7 L362.4,21.8 L361.1,21.8 L361.1,20.5 L362.4,20.5 L362.4,19.3 C362.4,17.7 363.5,16.8 364.8,16.8 C365.3,16.8 365.6,16.9 365.6,17 L365.6,18.3 C365.5,18.3 365.3,18.2 365,18.2 C364.5,18.2 363.9,18.4 363.9,19.4 L363.9,20.5 L365.6,20.5 L365.6,21.8 L363.9,21.8 M374.4,24.1 C374.4,26.3 372.9,27.9 370.7,27.9 C368.5,27.9 367,26.3 367,24.1 C367,21.9 368.5,20.3 370.7,20.3 C372.9,20.3 374.4,21.9 374.4,24.1 M373,24.1 C373,22.4 371.9,21.5 370.8,21.5 C369.7,21.5 368.6,22.4 368.6,24.1 C368.6,25.8 369.7,26.7 370.8,26.7 C371.9,26.7 373,25.8 373,24.1 M381,22 L380.4,22 C379.2,22 378.4,22.6 378.4,24.2 L378.4,27.8 L377,27.8 L377,20.6 L378.4,20.6 L378.4,21.9 C378.9,20.8 379.8,20.5 380.6,20.5 L381.1,20.5 L381.1,22 L381,22 M389.4,25.7 C389,27 387.8,28 386.2,28 C384.3,28 382.6,26.6 382.6,24.1 C382.6,21.8 384.2,20.3 386,20.3 C388.2,20.3 389.5,21.8 389.5,24.1 L389.5,24.5 L384,24.5 C384,25.8 385,26.7 386.2,26.7 C387.4,26.7 388,26.1 388.2,25.2 L389.4,25.7 M388,23.4 C388,22.4 387.3,21.6 386,21.6 C384.8,21.6 384.1,22.5 384,23.4 L388,23.4 M406.7,27.7 L406.7,19.4 L403.1,27.7 L401.8,27.7 L398.2,19.4 L398.2,27.7 L396.7,27.7 L396.7,17.1 L398.7,17.1 L402.4,25.8 L406.2,17.1 L408.2,17.1 L408.2,27.7 L406.7,27.7 M417.8,25.7 C417.4,27 416.2,28 414.6,28 C412.7,28 411,26.6 411,24.1 C411,21.8 412.6,20.3 414.4,20.3 C416.6,20.3 417.9,21.8 417.9,24.1 L417.9,24.5 L412.5,24.5 C412.5,25.8 413.5,26.7 414.7,26.7 C415.9,26.7 416.5,26.1 416.7,25.2 L417.8,25.7 M416.3,23.4 C416.3,22.4 415.6,21.6 414.3,21.6 C413.1,21.6 412.4,22.5 412.3,23.4 L416.3,23.4 M424.4,22 L423.8,22 C422.6,22 421.8,22.6 421.8,24.2 L421.8,27.8 L420.4,27.8 L420.4,20.6 L421.8,20.6 L421.8,21.9 C422.3,20.8 423.2,20.5 424,20.5 L424.5,20.5 L424.5,22 L424.4,22 M427.4,27.8 C427.5,28.8 428.3,29.6 429.4,29.6 C430.9,29.6 431.6,28.8 431.6,27.3 L431.6,26.3 C431.3,27 430.5,27.5 429.4,27.5 C427.5,27.5 426.1,26 426.1,24 C426.1,22.1 427.4,20.5 429.4,20.5 C430.5,20.5 431.3,20.9 431.6,21.6 L431.6,20.6 L433,20.6 L433,27.3 C433,29.1 432.1,30.9 429.4,30.9 C427.6,30.9 426.3,29.8 426.1,28.2 L427.4,27.8 M431.6,23.9 C431.6,22.5 430.8,21.6 429.5,21.6 C428.3,21.6 427.4,22.5 427.4,23.9 C427.4,25.3 428.2,26.2 429.5,26.2 C430.8,26.2 431.6,25.3 431.6,23.9 M436.6,16.8 C437.2,16.8 437.6,17.2 437.6,17.8 C437.6,18.4 437.2,18.8 436.6,18.8 C436,18.8 435.6,18.3 435.6,17.8 C435.6,17.2 436.1,16.8 436.6,16.8 M435.9,27.7 L435.9,20.5 L437.3,20.5 L437.3,27.7 L435.9,27.7 M441.9,27.7 L440.5,27.7 L440.5,20.5 L441.9,20.5 L441.9,21.5 C442.4,20.6 443.3,20.3 444.1,20.3 C445.8,20.3 446.7,21.5 446.7,23.2 L446.7,27.8 L445.3,27.8 L445.3,23.5 C445.3,22.5 444.9,21.7 443.6,21.7 C442.5,21.7 441.9,22.6 441.9,23.7 L441.9,27.7 M450.5,27.8 C450.6,28.8 451.4,29.6 452.5,29.6 C454,29.6 454.7,28.8 454.7,27.3 L454.7,26.3 C454.4,27 453.6,27.5 452.5,27.5 C450.6,27.5 449.2,26 449.2,24 C449.2,22.1 450.5,20.5 452.5,20.5 C453.6,20.5 454.4,20.9 454.7,21.6 L454.7,20.6 L456.1,20.6 L456.1,27.3 C456.1,29.1 455.2,30.9 452.5,30.9 C450.7,30.9 449.4,29.8 449.2,28.2 L450.5,27.8 M454.7,23.9 C454.7,22.5 453.9,21.6 452.6,21.6 C451.4,21.6 450.5,22.5 450.5,23.9 C450.5,25.3 451.3,26.2 452.6,26.2 C453.9,26.2 454.7,25.3 454.7,23.9 Z" style="stroke:none;fill-rule:nonzero;fill:#999999;fill-opacity:1;"/>
        </g>
        <g id="Shape14">
            <desc shapeID="14" type="0" basicInfo-basicType="0" basicInfo-roundedRectRadius="12" basicInfo-polygonSides="6" basicInfo-starPoints="5" bounding="rect(-48.1,-25,96.2,50)" text="" font-familyName="" font-pixelSize="20" font-bold="0" font-underline="0" font-alignment="1" strokeStyle="0" markerStart="0" markerEnd="0" shadowEnabled="0" shadowOffsetX="0" shadowOffsetY="2" shadowBlur="4" shadowOpacity="160" blurEnabled="0" blurRadius="4" transform="matrix(1,0,0,1,591.55,656.198)" pers-center="0,0" pers-size="0,0" pers-start="0,0" pers-end="0,0" locked="0" mesh="" flag=""/>
            <path id="shapePath14" d="M543.45,631.198 L639.65,631.198 L639.65,681.198 L543.45,681.198 L543.45,631.198 Z" style="stroke:#404040;stroke-opacity:1;stroke-width:4;stroke-linejoin:round;stroke-miterlimit:2;stroke-linecap:butt;fill-rule:nonzero;fill:#b3e3ff;fill-opacity:1;"/>
        </g>
        <g id="Shape15">
            <desc shapeID="15" type="0" basicInfo-basicType="0" basicInfo-roundedRectRadius="12" basicInfo-polygonSides="6" basicInfo-starPoints="5" bounding="rect(-24.9,-5.45001,49.8,10.9)" text="" font-familyName="" font-pixelSize="20" font-bold="0" font-underline="0" font-alignment="1" strokeStyle="0" markerStart="0" markerEnd="0" shadowEnabled="0" shadowOffsetX="0" shadowOffsetY="2" shadowBlur="4" shadowOpacity="160" blurEnabled="0" blurRadius="4" transform="matrix(1,0,0,1,593.05,657.047)" pers-center="0,0" pers-size="0,0" pers-start="0,0" pers-end="0,0" locked="0" mesh="" flag=""/>
            <path id="shapePath15" d="M578.15,662.198 L578.15,653.897 L574.55,662.198 L573.25,662.198 L569.65,653.897 L569.65,662.198 L568.15,662.198 L568.15,651.597 L570.15,651.597 L573.85,660.297 L577.65,651.597 L579.65,651.597 L579.65,662.198 L578.15,662.198 M584.55,658.097 L586.45,657.797 C586.85,657.698 587.05,657.497 587.05,657.297 C587.05,656.597 586.55,655.997 585.45,655.997 C584.45,655.997 583.95,656.597 583.85,657.497 L582.45,657.198 C582.65,655.797 583.85,654.897 585.45,654.897 C587.65,654.897 588.45,656.097 588.45,657.497 L588.45,661.097 C588.45,661.698 588.55,662.097 588.55,662.297 L587.15,662.297 C587.15,662.097 587.05,661.797 587.05,661.297 C586.75,661.797 586.05,662.497 584.75,662.497 C583.25,662.497 582.35,661.497 582.35,660.297 C582.35,658.997 583.35,658.297 584.55,658.097 M587.05,659.097 L587.05,658.797 L584.85,659.097 C584.25,659.198 583.85,659.497 583.85,660.198 C583.85,660.698 584.25,661.198 585.05,661.198 C586.15,661.297 587.05,660.698 587.05,659.097 M592.05,659.897 C592.15,660.698 592.75,661.198 593.75,661.198 C594.55,661.198 594.95,660.797 594.95,660.198 C594.95,659.797 594.65,659.397 594.05,659.297 L592.85,658.997 C591.75,658.797 591.05,657.997 591.05,656.997 C591.05,655.797 592.25,654.698 593.65,654.698 C595.65,654.698 596.25,655.997 596.35,656.597 L595.15,657.097 C595.05,656.698 594.75,655.897 593.65,655.897 C592.95,655.897 592.45,656.397 592.45,656.897 C592.45,657.297 592.75,657.698 593.25,657.797 L594.45,658.097 C595.75,658.397 596.45,659.198 596.45,660.198 C596.45,661.198 595.55,662.397 593.85,662.397 C591.85,662.397 591.05,661.097 590.95,660.297 L592.05,659.897 M600.85,654.997 L602.45,654.997 L602.45,656.297 L600.85,656.297 L600.85,660.097 C600.85,660.797 601.15,661.097 601.85,661.097 C602.05,661.097 602.25,661.097 602.45,660.997 L602.45,662.198 C602.35,662.198 601.95,662.297 601.45,662.297 C600.25,662.297 599.45,661.497 599.45,660.198 L599.45,656.198 L598.05,656.198 L598.05,654.897 L598.45,654.897 C599.25,654.897 599.55,654.397 599.55,653.797 L599.55,652.597 L600.85,652.597 L600.85,654.997 M611.25,660.198 C610.85,661.497 609.65,662.497 608.05,662.497 C606.15,662.497 604.45,661.097 604.45,658.597 C604.45,656.297 606.05,654.797 607.85,654.797 C610.05,654.797 611.35,656.297 611.35,658.597 L611.35,658.997 L605.95,658.997 C605.95,660.297 606.95,661.198 608.15,661.198 C609.35,661.198 609.95,660.597 610.15,659.698 L611.25,660.198 M609.75,657.897 C609.75,656.897 609.05,656.097 607.75,656.097 C606.55,656.097 605.85,656.997 605.75,657.897 L609.75,657.897 M617.85,656.397 L617.25,656.397 C616.05,656.397 615.25,656.997 615.25,658.597 L615.25,662.198 L613.85,662.198 L613.85,654.997 L615.25,654.997 L615.25,656.297 C615.75,655.198 616.65,654.897 617.45,654.897 L617.95,654.897 L617.95,656.397 L617.85,656.397 Z" style="stroke:none;fill-rule:nonzero;fill:#404040;fill-opacity:1;"/>
        </g>
        <g id="Shape16">
            <desc shapeID="16" type="0" basicInfo-basicType="0" basicInfo-roundedRectRadius="12" basicInfo-polygonSides="6" basicInfo-starPoints="5" bounding="rect(-219.9,-41,439.8,82)" text="" font-familyName="" font-pixelSize="20" font-bold="0" font-underline="0" font-alignment="1" strokeStyle="0" markerStart="0" markerEnd="0" shadowEnabled="0" shadowOffsetX="0" shadowOffsetY="2" shadowBlur="4" shadowOpacity="160" blurEnabled="0" blurRadius="4" transform="matrix(1,0,0,1,391.45,586.397)" pers-center="0,0" pers-size="0,0" pers-start="0,0" pers-end="0,0" locked="0" mesh="" flag=""/>
            <path id="shapePath16" d="M591.55,587.698 L591.55,611.198 M580.65,596.397 L591.55,585.597 L602.35,596.397 M611.35,545.397 L528.35,545.397 L569.55,545.397 M414.65,586.397 C414.65,608.997 396.25,627.397 373.65,627.397 L171.55,627.397 M414.65,586.397 C414.65,563.797 433.05,545.397 455.65,545.397 L486.35,545.397 " style="stroke:#404040;stroke-opacity:1;stroke-width:4;stroke-linejoin:round;stroke-miterlimit:2;stroke-linecap:round;fill:none;"/>
        </g>
        <g id="Shape17">
            <desc shapeID="17" type="0" basicInfo-basicType="0" basicInfo-roundedRectRadius="12" basicInfo-polygonSides="6" basicInfo-starPoints="5" bounding="rect(-21,-21,42,42)" text="" font-familyName="" font-pixelSize="20" font-bold="0" font-underline="0" font-alignment="1" strokeStyle="0" markerStart="0" markerEnd="0" shadowEnabled="0" shadowOffsetX="0" shadowOffsetY="2" shadowBlur="4" shadowOpacity="160" blurEnabled="0" blurRadius="4" transform="matrix(1,0,0,1,317.05,627.397)" pers-center="0,0" pers-size="0,0" pers-start="0,0" pers-end="0,0" locked="0" mesh="" flag=""/>
            <path id="shapePath17" d="M338.05,627.397 C338.05,638.995 328.648,648.397 317.05,648.397 C305.452,648.397 296.05,638.995 296.05,627.397 C296.05,615.799 305.452,606.397 317.05,606.397 C328.648,606.397 338.05,615.799 338.05,627.397 Z" style="stroke:#404040;stroke-opacity:1;stroke-width:4;stroke-linejoin:round;stroke-miterlimit:2;stroke-linecap:round;fill-rule:evenodd;fill:#ffffff;fill-opacity:1;"/>
        </g>
        <g id="Shape18">
            <desc shapeID="18" type="0" basicInfo-basicType="0" basicInfo-roundedRectRadius="12" basicInfo-polygonSides="6" basicInfo-starPoints="5" bounding="rect(-21,-21,42,42)" text="" font-familyName="" font-pixelSize="20" font-bold="0" font-underline="0" font-alignment="1" strokeStyle="0" markerStart="0" markerEnd="0" shadowEnabled="0" shadowOffsetX="0" shadowOffsetY="2" shadowBlur="4" shadowOpacity="160" blurEnabled="0" blurRadius="4" transform="matrix(1,0,0,1,233.85,627.397)" pers-center="0,0" pers-size="0,0" pers-start="0,0" pers-end="0,0" locked="0" mesh="" flag=""/>
            <path id="shapePath18" d="M254.85,627.397 C254.85,638.995 245.448,648.397 233.85,648.397 C222.252,648.397 212.85,638.995 212.85,627.397 C212.85,615.799 222.252,606.397 233.85,606.397 C245.448,606.397 254.85,615.799 254.85,627.397 Z" style="stroke:#404040;stroke-opacity:1;stroke-width:4;stroke-linejoin:round;stroke-miterlimit:2;stroke-linecap:round;fill-rule:evenodd;fill:#ffffff;fill-opacity:1;"/>
        </g>
        <g id="Shape19">
            <desc shapeID="19" type="0" basicInfo-basicType="0" basicInfo-roundedRectRadius="12" basicInfo-polygonSides="6" basicInfo-starPoints="5" bounding="rect(-21,-21,42,42)" text="" font-familyName="" font-pixelSize="20" font-bold="0" font-underline="0" font-alignment="1" strokeStyle="0" markerStart="0" markerEnd="0" shadowEnabled="0" shadowOffsetX="0" shadowOffsetY="2" shadowBlur="4" shadowOpacity="160" blurEnabled="0" blurRadius="4" transform="matrix(1,0,0,1,590.55,545.397)" pers-center="0,0" pers-size="0,0" pers-start="0,0" pers-end="0,0" locked="0" mesh="" flag=""/>
            <path id="shapePath19" d="M611.55,545.397 C611.55,556.995 602.148,566.397 590.55,566.397 C578.952,566.397 569.55,556.995 569.55,545.397 C569.55,533.799 578.952,524.397 590.55,524.397 C602.148,524.397 611.55,533.799 611.55,545.397 Z" style="stroke:#404040;stroke-opacity:1;stroke-width:4;stroke-linejoin:round;stroke-miterlimit:2;stroke-linecap:butt;fill-rule:evenodd;fill:#59afe1;fill-opacity:1;"/>
        </g>
        <g id="Shape20">
            <desc shapeID="20" type="0" basicInfo-basicType="0" basicInfo-roundedRectRadius="12" basicInfo-polygonSides="6" basicInfo-starPoints="5" bounding="rect(-21,-21,42,42)" text="" font-familyName="" font-pixelSize="20" font-bold="0" font-underline="0" font-alignment="1" strokeStyle="0" markerStart="0" markerEnd="0" shadowEnabled="0" shadowOffsetX="0" shadowOffsetY="2" shadowBlur="4" shadowOpacity="160" blurEnabled="0" blurRadius="4" transform="matrix(1,0,0,1,507.35,545.397)" pers-center="0,0" pers-size="0,0" pers-start="0,0" pers-end="0,0" locked="0" mesh="" flag=""/>
            <path id="shapePath20" d="M528.35,545.397 C528.35,556.995 518.948,566.397 507.35,566.397 C495.752,566.397 486.35,556.995 486.35,545.397 C486.35,533.799 495.752,524.397 507.35,524.397 C518.948,524.397 528.35,533.799 528.35,545.397 Z" style="stroke:#404040;stroke-opacity:1;stroke-width:4;stroke-linejoin:round;stroke-miterlimit:2;stroke-linecap:round;fill-rule:evenodd;fill:#ffffff;fill-opacity:1;"/>
        </g>
        <g id="Shape21">
            <desc shapeID="21" type="0" basicInfo-basicType="0" basicInfo-roundedRectRadius="12" basicInfo-polygonSides="6" basicInfo-starPoints="5" bounding="rect(-21,-21,42,42)" text="" font-familyName="" font-pixelSize="20" font-bold="0" font-underline="0" font-alignment="1" strokeStyle="0" markerStart="0" markerEnd="0" shadowEnabled="0" shadowOffsetX="0" shadowOffsetY="2" shadowBlur="4" shadowOpacity="160" blurEnabled="0" blurRadius="4" transform="matrix(1,0,0,1,150.55,627.397)" pers-center="0,0" pers-size="0,0" pers-start="0,0" pers-end="0,0" locked="0" mesh="" flag=""/>
            <path id="shapePath21" d="M171.55,627.397 C171.55,638.995 162.148,648.397 150.55,648.397 C138.952,648.397 129.55,638.995 129.55,627.397 C129.55,615.799 138.952,606.397 150.55,606.397 C162.148,606.397 171.55,615.799 171.55,627.397 Z" style="stroke:#404040;stroke-opacity:1;stroke-width:4;stroke-linejoin:round;stroke-miterlimit:2;stroke-linecap:round;fill-rule:evenodd;fill:#ffffff;fill-opacity:1;"/>
        </g>
        <g id="Shape22">
            <desc shapeID="22" type="0" basicInfo-basicType="0" basicInfo-roundedRectRadius="12" basicInfo-polygonSides="6" basicInfo-starPoints="5" bounding="rect(-10.85,-12.85,21.7,25.7)" text="" font-familyName="" font-pixelSize="20" font-bold="0" font-underline="0" font-alignment="1" strokeStyle="0" markerStart="0" markerEnd="0" shadowEnabled="0" shadowOffsetX="0" shadowOffsetY="2" shadowBlur="4" shadowOpacity="160" blurEnabled="0" blurRadius="4" transform="matrix(1,0,0,1,590.6,492.047)" pers-center="0,0" pers-size="0,0" pers-start="0,0" pers-end="0,0" locked="0" mesh="" flag=""/>
            <path id="shapePath22" d="M590.55,502.698 L590.55,479.198 M601.45,493.997 L590.55,504.897 L579.75,493.997 " style="stroke:#404040;stroke-opacity:1;stroke-width:4;stroke-linejoin:round;stroke-miterlimit:2;stroke-linecap:round;fill:none;"/>
        </g>
        <g id="Shape23">
            <desc shapeID="23" type="0" basicInfo-basicType="0" basicInfo-roundedRectRadius="12" basicInfo-polygonSides="6" basicInfo-starPoints="5" bounding="rect(-102.6,-7.04999,205.2,14.1)" text="" font-familyName="" font-pixelSize="20" font-bold="0" font-underline="0" font-alignment="1" strokeStyle="0" markerStart="0" markerEnd="0" shadowEnabled="0" shadowOffsetX="0" shadowOffsetY="2" shadowBlur="4" shadowOpacity="160" blurEnabled="0" blurRadius="4" transform="matrix(1,0,0,1,423.05,380.753)" pers-center="0,0" pers-size="0,0" pers-start="0,0" pers-end="0,0" locked="0" mesh="" flag=""/>
            <path id="shapePath23" d="M327.85,381.703 L323.15,381.703 L322.05,384.703 L320.45,384.703 L324.65,374.103 L326.35,374.103 L330.55,384.703 L328.95,384.703 L327.85,381.703 M323.75,380.303 L327.45,380.303 L325.65,375.503 L323.75,380.303 M334.65,378.703 L334.65,384.603 L333.15,384.603 L333.15,378.703 L331.85,378.703 L331.85,377.403 L333.15,377.403 L333.15,376.203 C333.15,374.603 334.25,373.703 335.55,373.703 C336.05,373.703 336.35,373.803 336.35,373.903 L336.35,375.203 C336.25,375.203 336.05,375.103 335.75,375.103 C335.25,375.103 334.65,375.303 334.65,376.303 L334.65,377.403 L336.35,377.403 L336.35,378.703 L334.65,378.703 M340.55,377.403 L342.15,377.403 L342.15,378.703 L340.55,378.703 L340.55,382.503 C340.55,383.203 340.85,383.503 341.55,383.503 C341.75,383.503 341.95,383.503 342.15,383.403 L342.15,384.603 C342.05,384.603 341.65,384.703 341.15,384.703 C339.95,384.703 339.15,383.903 339.15,382.603 L339.15,378.603 L337.75,378.603 L337.75,377.303 L338.15,377.303 C338.95,377.303 339.25,376.803 339.25,376.203 L339.25,375.003 L340.55,375.003 L340.55,377.403 M350.95,382.603 C350.55,383.903 349.35,384.903 347.75,384.903 C345.85,384.903 344.15,383.503 344.15,381.003 C344.15,378.703 345.75,377.203 347.55,377.203 C349.75,377.203 351.05,378.703 351.05,381.003 L351.05,381.403 L345.65,381.403 C345.65,382.703 346.65,383.603 347.85,383.603 C349.05,383.603 349.65,383.003 349.85,382.103 L350.95,382.603 M349.45,380.303 C349.45,379.303 348.75,378.503 347.45,378.503 C346.25,378.503 345.55,379.403 345.45,380.303 L349.45,380.303 M357.55,378.903 L356.95,378.903 C355.75,378.903 354.95,379.503 354.95,381.103 L354.95,384.703 L353.55,384.703 L353.55,377.503 L354.95,377.503 L354.95,378.803 C355.45,377.703 356.35,377.403 357.15,377.403 L357.65,377.403 L357.65,378.903 L357.55,378.903 M366.05,380.503 L367.95,380.203 C368.35,380.103 368.55,379.903 368.55,379.703 C368.55,379.003 368.05,378.403 366.95,378.403 C365.95,378.403 365.45,379.003 365.35,379.903 L363.95,379.603 C364.15,378.203 365.35,377.303 366.95,377.303 C369.15,377.303 369.95,378.503 369.95,379.903 L369.95,383.503 C369.95,384.103 370.05,384.503 370.05,384.703 L368.65,384.703 C368.65,384.503 368.55,384.203 368.55,383.703 C368.25,384.203 367.55,384.903 366.25,384.903 C364.75,384.903 363.85,383.903 363.85,382.703 C363.85,381.403 364.75,380.703 366.05,380.503 M368.55,381.603 L368.55,381.303 L366.35,381.603 C365.75,381.703 365.25,382.003 365.25,382.703 C365.25,383.203 365.65,383.703 366.45,383.703 C367.55,383.703 368.55,383.103 368.55,381.603 M377.55,384.603 L377.55,374.003 L384.05,374.003 L384.05,375.403 L379.05,375.403 L379.05,378.803 L383.55,378.803 L383.55,380.203 L378.95,380.203 L378.95,384.703 L377.55,384.703 L377.55,384.603 M387.55,380.503 L389.45,380.203 C389.85,380.103 390.05,379.903 390.05,379.703 C390.05,379.003 389.55,378.403 388.45,378.403 C387.45,378.403 386.95,379.003 386.85,379.903 L385.45,379.603 C385.65,378.203 386.85,377.303 388.45,377.303 C390.65,377.303 391.45,378.503 391.45,379.903 L391.45,383.503 C391.45,384.103 391.55,384.503 391.55,384.703 L390.15,384.703 C390.15,384.503 390.05,384.203 390.05,383.703 C389.75,384.203 389.05,384.903 387.75,384.903 C386.25,384.903 385.35,383.903 385.35,382.703 C385.45,381.403 386.35,380.703 387.55,380.503 M390.15,381.603 L390.15,381.303 L387.95,381.603 C387.35,381.703 386.95,382.003 386.95,382.703 C386.95,383.203 387.35,383.703 388.15,383.703 C389.15,383.703 390.15,383.103 390.15,381.603 M395.05,382.303 C395.15,383.103 395.75,383.603 396.75,383.603 C397.55,383.603 397.95,383.203 397.95,382.603 C397.95,382.203 397.65,381.803 397.05,381.703 L395.85,381.403 C394.75,381.203 394.05,380.403 394.05,379.403 C394.05,378.203 395.25,377.103 396.65,377.103 C398.65,377.103 399.25,378.403 399.35,379.003 L398.15,379.503 C398.05,379.103 397.75,378.303 396.65,378.303 C395.95,378.303 395.45,378.803 395.45,379.303 C395.45,379.703 395.75,380.103 396.25,380.203 L397.45,380.503 C398.75,380.803 399.45,381.603 399.45,382.603 C399.45,383.603 398.55,384.803 396.85,384.803 C394.85,384.803 394.05,383.503 393.95,382.703 L395.05,382.303 M403.85,377.403 L405.45,377.403 L405.45,378.703 L403.85,378.703 L403.85,382.503 C403.85,383.203 404.15,383.503 404.85,383.503 C405.05,383.503 405.25,383.503 405.45,383.403 L405.45,384.603 C405.35,384.603 404.95,384.703 404.45,384.703 C403.25,384.703 402.45,383.903 402.45,382.603 L402.45,378.603 L401.05,378.603 L401.05,377.303 L401.45,377.303 C402.25,377.303 402.55,376.803 402.55,376.203 L402.55,375.003 L403.85,375.003 L403.85,377.403 M407.55,381.003 L407.55,379.803 L411.65,379.803 L411.65,381.003 L407.55,381.003 M414.35,384.603 L414.35,374.003 L420.85,374.003 L420.85,375.403 L415.85,375.403 L415.85,378.803 L420.35,378.803 L420.35,380.203 L415.85,380.203 L415.85,384.703 L414.35,384.703 L414.35,384.603 M429.45,381.003 C429.45,383.203 427.95,384.803 425.75,384.803 C423.55,384.803 422.05,383.203 422.05,381.003 C422.05,378.803 423.55,377.203 425.75,377.203 C427.95,377.203 429.45,378.803 429.45,381.003 M428.05,381.003 C428.05,379.303 426.95,378.403 425.85,378.403 C424.75,378.403 423.65,379.303 423.65,381.003 C423.65,382.703 424.75,383.603 425.85,383.603 C426.95,383.603 428.05,382.703 428.05,381.003 M436.05,378.903 L435.45,378.903 C434.25,378.903 433.45,379.503 433.45,381.103 L433.45,384.703 L432.05,384.703 L432.05,377.503 L433.45,377.503 L433.45,378.803 C433.95,377.703 434.85,377.403 435.65,377.403 L436.15,377.403 L436.15,378.903 L436.05,378.903 M443.95,377.403 L445.85,382.803 L447.45,377.403 L448.95,377.403 L446.65,384.603 L445.15,384.603 L443.25,379.103 L441.35,384.603 L439.85,384.603 L437.45,377.403 L438.95,377.403 L440.55,382.803 L442.45,377.403 L443.95,377.403 M452.75,380.503 L454.65,380.203 C455.05,380.103 455.25,379.903 455.25,379.703 C455.25,379.003 454.75,378.403 453.65,378.403 C452.65,378.403 452.15,379.003 452.05,379.903 L450.65,379.603 C450.85,378.203 452.05,377.303 453.65,377.303 C455.85,377.303 456.65,378.503 456.65,379.903 L456.65,383.503 C456.65,384.103 456.75,384.503 456.75,384.703 L455.35,384.703 C455.35,384.503 455.25,384.203 455.25,383.703 C454.95,384.203 454.25,384.903 452.95,384.903 C451.45,384.903 450.55,383.903 450.55,382.703 C450.55,381.403 451.55,380.703 452.75,380.503 M455.25,381.603 L455.25,381.303 L453.05,381.603 C452.45,381.703 451.95,382.003 451.95,382.703 C451.95,383.203 452.35,383.703 453.15,383.703 C454.35,383.703 455.25,383.103 455.25,381.603 M463.65,378.903 L463.05,378.903 C461.85,378.903 461.05,379.503 461.05,381.103 L461.05,384.703 L459.65,384.703 L459.65,377.503 L461.05,377.503 L461.05,378.803 C461.55,377.703 462.45,377.403 463.25,377.403 L463.75,377.403 L463.75,378.903 L463.65,378.903 M470.85,383.603 C470.55,384.303 469.75,384.903 468.65,384.903 C466.55,384.903 465.25,383.203 465.25,381.103 C465.25,379.103 466.65,377.303 468.65,377.303 C469.95,377.303 470.65,377.903 470.85,378.503 L470.85,373.803 L472.25,373.803 L472.25,383.303 C472.25,384.003 472.35,384.503 472.35,384.603 L470.95,384.603 C470.95,384.403 470.85,384.103 470.85,383.603 M468.75,383.603 C470.05,383.603 470.85,382.503 470.85,381.003 C470.85,379.503 470.05,378.503 468.75,378.503 C467.45,378.503 466.65,379.503 466.65,381.003 C466.65,382.503 467.35,383.603 468.75,383.603 M490.05,384.603 L490.05,376.303 L486.45,384.603 L485.15,384.603 L481.55,376.303 L481.55,384.603 L480.05,384.603 L480.05,374.003 L482.05,374.003 L485.75,382.703 L489.55,374.003 L491.55,374.003 L491.55,384.603 L490.05,384.603 M501.05,382.603 C500.65,383.903 499.45,384.903 497.85,384.903 C495.95,384.903 494.25,383.503 494.25,381.003 C494.25,378.703 495.85,377.203 497.65,377.203 C499.85,377.203 501.15,378.703 501.15,381.003 L501.15,381.403 L495.75,381.403 C495.75,382.703 496.75,383.603 497.95,383.603 C499.15,383.603 499.75,383.003 499.95,382.103 L501.05,382.603 M499.65,380.303 C499.65,379.303 498.95,378.503 497.65,378.503 C496.45,378.503 495.75,379.403 495.65,380.303 L499.65,380.303 M507.65,378.903 L507.05,378.903 C505.85,378.903 505.05,379.503 505.05,381.103 L505.05,384.703 L503.65,384.703 L503.65,377.503 L505.05,377.503 L505.05,378.803 C505.55,377.703 506.45,377.403 507.25,377.403 L507.75,377.403 L507.75,378.903 L507.65,378.903 M510.65,384.703 C510.75,385.703 511.55,386.503 512.65,386.503 C514.15,386.503 514.85,385.703 514.85,384.203 L514.85,383.203 C514.55,383.903 513.75,384.403 512.65,384.403 C510.75,384.403 509.35,382.903 509.35,380.903 C509.35,379.003 510.65,377.403 512.65,377.403 C513.75,377.403 514.55,377.803 514.85,378.503 L514.85,377.503 L516.25,377.503 L516.25,384.203 C516.25,386.003 515.35,387.803 512.65,387.803 C510.85,387.803 509.55,386.703 509.35,385.103 L510.65,384.703 M514.95,380.803 C514.95,379.403 514.15,378.503 512.85,378.503 C511.65,378.503 510.75,379.403 510.75,380.803 C510.75,382.203 511.55,383.103 512.85,383.103 C514.05,383.103 514.95,382.203 514.95,380.803 M525.55,382.603 C525.15,383.903 523.95,384.903 522.35,384.903 C520.45,384.903 518.75,383.503 518.75,381.003 C518.75,378.703 520.35,377.203 522.15,377.203 C524.35,377.203 525.65,378.703 525.65,381.003 L525.65,381.403 L520.25,381.403 C520.25,382.703 521.25,383.603 522.45,383.603 C523.65,383.603 524.25,383.003 524.45,382.103 L525.55,382.603 M524.15,380.303 C524.15,379.303 523.45,378.503 522.15,378.503 C520.95,378.503 520.25,379.403 520.15,380.303 L524.15,380.303 Z" style="stroke:none;fill-rule:nonzero;fill:#999999;fill-opacity:1;"/>
        </g>
        <g id="Shape24">
            <desc shapeID="24" type="0" basicInfo-basicType="0" basicInfo-roundedRectRadius="12" basicInfo-polygonSides="6" basicInfo-starPoints="5" bounding="rect(-70.8,-25,141.6,50)" text="" font-familyName="" font-pixelSize="20" font-bold="0" font-underline="0" font-alignment="1" strokeStyle="0" markerStart="0" markerEnd="0" shadowEnabled="0" shadowOffsetX="0" shadowOffsetY="2" shadowBlur="4" shadowOpacity="160" blurEnabled="0" blurRadius="4" transform="matrix(1,0,0,1,591.55,432.198)" pers-center="0,0" pers-size="0,0" pers-start="0,0" pers-end="0,0" locked="0" mesh="" flag=""/>
            <path id="shapePath24" d="M520.75,407.198 L662.35,407.198 L662.35,457.198 L520.75,457.198 L520.75,407.198 Z" style="stroke:#404040;stroke-opacity:1;stroke-width:4;stroke-linejoin:round;stroke-miterlimit:2;stroke-linecap:round;fill-rule:nonzero;fill:#b18be8;fill-opacity:1;"/>
        </g>
        <g id="Shape25">
            <desc shapeID="25" type="0" basicInfo-basicType="0" basicInfo-roundedRectRadius="12" basicInfo-polygonSides="6" basicInfo-starPoints="5" bounding="rect(-50.1,-5.55005,100.2,11.1)" text="" font-familyName="" font-pixelSize="20" font-bold="0" font-underline="0" font-alignment="1" strokeStyle="0" markerStart="0" markerEnd="0" shadowEnabled="0" shadowOffsetX="0" shadowOffsetY="2" shadowBlur="4" shadowOpacity="160" blurEnabled="0" blurRadius="4" transform="matrix(1,0,0,1,592.45,432.948)" pers-center="0,0" pers-size="0,0" pers-start="0,0" pers-end="0,0" locked="0" mesh="" flag=""/>
            <path id="shapePath25" d="M548.55,430.497 C548.45,429.698 547.75,428.698 546.35,428.698 C545.15,428.698 544.25,429.497 544.25,430.497 C544.25,431.297 544.75,431.897 545.65,431.997 L547.25,432.297 C549.05,432.698 550.05,433.797 550.05,435.297 C550.05,436.897 548.65,438.397 546.35,438.397 C543.75,438.397 542.55,436.797 542.35,435.198 L543.75,434.797 C543.85,435.997 544.65,437.097 546.25,437.097 C547.75,437.097 548.45,436.297 548.45,435.397 C548.45,434.597 547.95,433.997 546.85,433.797 L545.35,433.497 C543.85,433.198 542.75,432.198 542.75,430.597 C542.75,428.897 544.25,427.397 546.25,427.397 C548.65,427.397 549.65,428.897 549.85,429.997 L548.55,430.497 M559.25,434.597 C559.25,436.797 557.75,438.397 555.55,438.397 C553.35,438.397 551.85,436.797 551.85,434.597 C551.85,432.397 553.35,430.797 555.55,430.797 C557.75,430.797 559.25,432.397 559.25,434.597 M557.75,434.597 C557.75,432.897 556.65,431.997 555.55,431.997 C554.45,431.997 553.35,432.897 553.35,434.597 C553.35,436.297 554.45,437.198 555.55,437.198 C556.65,437.198 557.75,436.297 557.75,434.597 M561.75,438.198 L561.75,430.997 L563.05,430.997 L563.05,431.997 C563.55,431.198 564.45,430.797 565.25,430.797 C566.15,430.797 567.05,431.198 567.45,432.198 C568.05,431.198 568.95,430.797 569.85,430.797 C571.15,430.797 572.35,431.698 572.35,433.497 L572.35,438.198 L570.95,438.198 L570.95,433.698 C570.95,432.797 570.45,432.097 569.45,432.097 C568.45,432.097 567.75,432.897 567.75,433.897 L567.75,438.297 L566.35,438.297 L566.35,433.797 C566.35,432.897 565.95,432.198 564.85,432.198 C563.85,432.198 563.15,432.997 563.15,433.997 L563.15,438.297 L561.75,438.297 L561.75,438.198 M581.65,436.198 C581.25,437.497 580.05,438.497 578.45,438.497 C576.55,438.497 574.85,437.097 574.85,434.597 C574.85,432.297 576.45,430.797 578.25,430.797 C580.45,430.797 581.75,432.297 581.75,434.597 L581.75,434.997 L576.35,434.997 C576.35,436.297 577.35,437.198 578.55,437.198 C579.75,437.198 580.35,436.597 580.55,435.698 L581.65,436.198 M580.25,433.897 C580.25,432.897 579.55,432.097 578.25,432.097 C577.05,432.097 576.35,432.997 576.25,433.897 L580.25,433.897 M588.85,438.198 L588.85,427.597 L595.35,427.597 L595.35,428.997 L590.35,428.997 L590.35,432.397 L594.85,432.397 L594.85,433.797 L590.35,433.797 L590.35,438.297 L588.85,438.297 L588.85,438.198 M603.55,436.198 C603.15,437.497 601.95,438.497 600.35,438.497 C598.45,438.497 596.75,437.097 596.75,434.597 C596.75,432.297 598.35,430.797 600.15,430.797 C602.35,430.797 603.65,432.297 603.65,434.597 L603.65,434.997 L598.25,434.997 C598.25,436.297 599.25,437.198 600.45,437.198 C601.65,437.198 602.25,436.597 602.45,435.698 L603.55,436.198 M602.05,433.897 C602.05,432.897 601.35,432.097 600.05,432.097 C598.85,432.097 598.15,432.997 598.05,433.897 L602.05,433.897 M607.85,434.097 L609.75,433.797 C610.15,433.698 610.35,433.497 610.35,433.297 C610.35,432.597 609.85,431.997 608.75,431.997 C607.75,431.997 607.25,432.597 607.15,433.497 L605.75,433.198 C605.95,431.797 607.15,430.897 608.75,430.897 C610.95,430.897 611.75,432.097 611.75,433.497 L611.75,437.097 C611.75,437.698 611.85,438.097 611.85,438.297 L610.45,438.297 C610.45,438.097 610.35,437.797 610.35,437.297 C610.05,437.797 609.35,438.497 608.05,438.497 C606.55,438.497 605.65,437.497 605.65,436.297 C605.65,434.997 606.65,434.297 607.85,434.097 M610.35,435.097 L610.35,434.797 L608.15,435.097 C607.55,435.198 607.05,435.497 607.05,436.198 C607.05,436.698 607.45,437.198 608.25,437.198 C609.45,437.297 610.35,436.698 610.35,435.097 M616.55,430.997 L618.15,430.997 L618.15,432.297 L616.55,432.297 L616.55,436.097 C616.55,436.797 616.85,437.097 617.55,437.097 C617.75,437.097 617.95,437.097 618.15,436.997 L618.15,438.198 C618.05,438.198 617.65,438.297 617.15,438.297 C615.95,438.297 615.15,437.497 615.15,436.198 L615.15,432.198 L613.75,432.198 L613.75,430.897 L614.15,430.897 C614.95,430.897 615.25,430.397 615.25,429.797 L615.25,428.597 L616.55,428.597 L616.55,430.997 M623.45,438.497 C621.75,438.497 620.75,437.198 620.75,435.597 L620.75,431.097 L622.15,431.097 L622.15,435.397 C622.15,436.397 622.55,437.297 623.75,437.297 C624.85,437.297 625.45,436.497 625.45,435.497 L625.45,431.097 L626.85,431.097 L626.85,436.997 C626.85,437.597 626.85,438.097 626.95,438.297 L625.55,438.297 C625.55,438.097 625.45,437.698 625.45,437.397 C625.15,438.097 624.25,438.497 623.45,438.497 M634.05,432.397 L633.45,432.397 C632.25,432.397 631.45,432.997 631.45,434.597 L631.45,438.198 L630.05,438.198 L630.05,430.997 L631.45,430.997 L631.45,432.297 C631.95,431.198 632.85,430.897 633.65,430.897 L634.15,430.897 L634.15,432.397 L634.05,432.397 M642.45,436.198 C642.05,437.497 640.85,438.497 639.25,438.497 C637.35,438.497 635.65,437.097 635.65,434.597 C635.65,432.297 637.25,430.797 639.05,430.797 C641.25,430.797 642.55,432.297 642.55,434.597 L642.55,434.997 L637.15,434.997 C637.15,436.297 638.15,437.198 639.35,437.198 C640.55,437.198 641.15,436.597 641.35,435.698 L642.45,436.198 M641.05,433.897 C641.05,432.897 640.35,432.097 639.05,432.097 C637.85,432.097 637.15,432.997 637.05,433.897 L641.05,433.897 Z" style="stroke:none;fill-rule:nonzero;fill:#404040;fill-opacity:1;"/>
        </g>
    </g>
</svg>
