<?xml version="1.0"?>
<svg version="1.1" xmlns="http://www.w3.org/2000/svg" xmlns:xlink="http://www.w3.org/1999/xlink" width="800" height="870">
    <desc iVinci="yes" version="4.5" gridStep="20" showGrid="no" snapToGrid="no" codePlatform="0"/>
    <g id="Layer1" opacity="1">
        <g id="Shape1">
            <desc shapeID="1" type="0" basicInfo-basicType="0" basicInfo-roundedRectRadius="12" basicInfo-polygonSides="6" basicInfo-starPoints="5" bounding="rect(-75.9,-7.04999,151.8,14.1)" text="" font-familyName="" font-pixelSize="20" font-bold="0" font-underline="0" font-alignment="1" strokeStyle="0" markerStart="0" markerEnd="0" shadowEnabled="0" shadowOffsetX="0" shadowOffsetY="2" shadowBlur="4" shadowOpacity="160" blurEnabled="0" blurRadius="4" transform="matrix(1,0,0,1,394.9,478.322)" pers-center="0,0" pers-size="0,0" pers-start="0,0" pers-end="0,0" locked="0" mesh="" flag=""/>
            <path id="shapePath1" d="M326.4,479.272 L321.7,479.272 L320.6,482.272 L319,482.272 L323.2,471.672 L324.9,471.672 L329.1,482.272 L327.5,482.272 L326.4,479.272 M322.3,477.872 L326,477.872 L324.2,473.072 L322.3,477.872 M333.2,476.272 L333.2,482.172 L331.7,482.172 L331.7,476.272 L330.4,476.272 L330.4,474.972 L331.7,474.972 L331.7,473.772 C331.7,472.172 332.8,471.272 334.1,471.272 C334.6,471.272 334.9,471.372 334.9,471.472 L334.9,472.772 C334.8,472.772 334.6,472.672 334.3,472.672 C333.8,472.672 333.2,472.872 333.2,473.872 L333.2,474.972 L334.9,474.972 L334.9,476.272 L333.2,476.272 M339.1,474.972 L340.7,474.972 L340.7,476.272 L339.1,476.272 L339.1,480.072 C339.1,480.772 339.4,481.072 340.1,481.072 C340.3,481.072 340.5,481.072 340.7,480.972 L340.7,482.172 C340.6,482.172 340.2,482.272 339.7,482.272 C338.5,482.272 337.7,481.472 337.7,480.172 L337.7,476.172 L336.3,476.172 L336.3,474.972 L336.7,474.972 C337.5,474.972 337.8,474.472 337.8,473.872 L337.8,472.672 L339.1,472.672 L339.1,474.972 M349.5,480.172 C349.1,481.472 347.9,482.472 346.3,482.472 C344.4,482.472 342.7,481.072 342.7,478.572 C342.7,476.272 344.3,474.772 346.1,474.772 C348.3,474.772 349.6,476.272 349.6,478.572 L349.6,478.972 L344.2,478.972 C344.2,480.272 345.2,481.172 346.4,481.172 C347.6,481.172 348.2,480.572 348.4,479.672 L349.5,480.172 M348,477.872 C348,476.872 347.3,476.072 346,476.072 C344.8,476.072 344.1,476.972 344,477.872 L348,477.872 M356.1,476.372 L355.5,476.372 C354.3,476.372 353.5,476.972 353.5,478.572 L353.5,482.172 L352.1,482.172 L352.1,474.972 L353.5,474.972 L353.5,476.272 C354,475.172 354.9,474.872 355.7,474.872 L356.2,474.872 L356.2,476.372 L356.1,476.372 M364.6,478.072 L366.5,477.772 C366.9,477.672 367.1,477.472 367.1,477.272 C367.1,476.572 366.6,475.972 365.5,475.972 C364.5,475.972 364,476.572 363.9,477.472 L362.5,477.172 C362.7,475.772 363.9,474.872 365.5,474.872 C367.7,474.872 368.5,476.072 368.5,477.472 L368.5,481.072 C368.5,481.672 368.6,482.072 368.6,482.272 L367.2,482.272 C367.2,482.072 367.1,481.772 367.1,481.272 C366.8,481.772 366.1,482.472 364.8,482.472 C363.3,482.472 362.4,481.472 362.4,480.272 C362.4,478.972 363.3,478.272 364.6,478.072 M367.1,479.072 L367.1,478.772 L364.9,479.072 C364.3,479.172 363.8,479.472 363.8,480.172 C363.8,480.672 364.2,481.172 365,481.172 C366.1,481.272 367.1,480.672 367.1,479.072 M377.4,476.472 L380.3,473.872 L375.7,473.872 L375.7,472.472 L382.3,472.472 L382.3,473.772 L379.5,476.372 C380.9,476.372 382.5,477.372 382.5,479.372 C382.5,480.972 381.2,482.472 379,482.472 C376.8,482.472 375.5,480.972 375.4,479.372 L376.8,479.072 C376.9,480.372 377.8,481.172 379,481.172 C380.3,481.172 381.1,480.372 381.1,479.372 C381.1,478.072 380.1,477.572 379.1,477.572 C378.8,477.572 378.5,477.672 378.2,477.772 L377.4,476.472 M384.3,478.472 L384.3,477.272 L388.4,477.272 L388.4,478.472 L384.3,478.472 M396.4,474.972 L398.3,480.372 L399.9,474.972 L401.4,474.972 L399.1,482.172 L397.6,482.172 L395.7,476.672 L393.8,482.172 L392.3,482.172 L389.9,474.972 L391.4,474.972 L393,480.372 L394.9,474.972 L396.4,474.972 M405.2,478.072 L407.1,477.772 C407.5,477.672 407.7,477.472 407.7,477.272 C407.7,476.572 407.2,475.972 406.1,475.972 C405.1,475.972 404.6,476.572 404.5,477.472 L403.1,477.172 C403.3,475.772 404.5,474.872 406.1,474.872 C408.3,474.872 409.1,476.072 409.1,477.472 L409.1,481.072 C409.1,481.672 409.2,482.072 409.2,482.272 L407.8,482.272 C407.8,482.072 407.7,481.772 407.7,481.272 C407.4,481.772 406.7,482.472 405.4,482.472 C403.9,482.472 403,481.472 403,480.272 C403,478.972 404,478.272 405.2,478.072 M407.7,479.072 L407.7,478.772 L405.5,479.072 C404.9,479.172 404.5,479.472 404.5,480.172 C404.5,480.672 404.9,481.172 405.7,481.172 C406.8,481.272 407.7,480.672 407.7,479.072 M412.2,485.172 L414,481.372 L410.9,474.972 L412.5,474.972 L414.7,479.972 L416.9,474.972 L418.4,474.972 L413.7,485.172 L412.2,485.172 M435.2,482.172 L435.2,473.972 L431.6,482.272 L430.3,482.272 L426.7,473.972 L426.7,482.272 L425.2,482.272 L425.2,471.672 L427.2,471.672 L430.9,480.372 L434.7,471.672 L436.7,471.672 L436.7,482.272 L435.2,482.272 L435.2,482.172 M446.2,480.172 C445.8,481.472 444.6,482.472 443,482.472 C441.1,482.472 439.4,481.072 439.4,478.572 C439.4,476.272 441,474.772 442.8,474.772 C445,474.772 446.3,476.272 446.3,478.572 L446.3,478.972 L440.9,478.972 C440.9,480.272 441.9,481.172 443.1,481.172 C444.3,481.172 444.9,480.572 445.1,479.672 L446.2,480.172 M444.8,477.872 C444.8,476.872 444.1,476.072 442.8,476.072 C441.6,476.072 440.9,476.972 440.8,477.872 L444.8,477.872 M452.8,476.372 L452.2,476.372 C451,476.372 450.2,476.972 450.2,478.572 L450.2,482.172 L448.8,482.172 L448.8,474.972 L450.2,474.972 L450.2,476.272 C450.7,475.172 451.6,474.872 452.4,474.872 L452.9,474.872 L452.9,476.372 L452.8,476.372 M455.9,482.272 C456,483.272 456.8,484.072 457.9,484.072 C459.4,484.072 460.1,483.272 460.1,481.772 L460.1,480.772 C459.8,481.472 459,481.972 457.9,481.972 C456,481.972 454.6,480.472 454.6,478.472 C454.6,476.572 455.9,474.972 457.9,474.972 C459,474.972 459.8,475.372 460.1,476.072 L460.1,475.072 L461.5,475.072 L461.5,481.772 C461.5,483.572 460.6,485.372 457.9,485.372 C456.1,485.372 454.8,484.272 454.6,482.672 L455.9,482.272 M460.1,478.372 C460.1,476.972 459.3,476.072 458,476.072 C456.8,476.072 455.9,476.972 455.9,478.372 C455.9,479.772 456.7,480.672 458,480.672 C459.2,480.672 460.1,479.772 460.1,478.372 M470.7,480.172 C470.3,481.472 469.1,482.472 467.5,482.472 C465.6,482.472 463.9,481.072 463.9,478.572 C463.9,476.272 465.5,474.772 467.3,474.772 C469.5,474.772 470.8,476.272 470.8,478.572 L470.8,478.972 L465.4,478.972 C465.4,480.272 466.4,481.172 467.6,481.172 C468.8,481.172 469.4,480.572 469.6,479.672 L470.7,480.172 M469.3,477.872 C469.3,476.872 468.6,476.072 467.3,476.072 C466.1,476.072 465.4,476.972 465.3,477.872 L469.3,477.872 Z" style="stroke:none;fill-rule:nonzero;fill:#999999;fill-opacity:1;"/>
        </g>
        <g id="Shape2">
            <desc shapeID="2" type="0" basicInfo-basicType="0" basicInfo-roundedRectRadius="12" basicInfo-polygonSides="6" basicInfo-starPoints="5" bounding="rect(-48.1,-25,96.2,50)" text="" font-familyName="" font-pixelSize="20" font-bold="0" font-underline="0" font-alignment="1" strokeStyle="0" markerStart="0" markerEnd="0" shadowEnabled="0" shadowOffsetX="0" shadowOffsetY="2" shadowBlur="4" shadowOpacity="160" blurEnabled="0" blurRadius="4" transform="matrix(1,0,0,1,702.9,841.299)" pers-center="0,0" pers-size="0,0" pers-start="0,0" pers-end="0,0" locked="0" mesh="" flag=""/>
            <path id="shapePath2" d="M654.8,816.299 L751,816.299 L751,866.299 L654.8,866.299 L654.8,816.299 Z" style="stroke:#404040;stroke-opacity:1;stroke-width:4;stroke-linejoin:round;stroke-miterlimit:2;stroke-linecap:butt;fill-rule:nonzero;fill:#b3e3ff;fill-opacity:1;"/>
        </g>
        <g id="Shape3">
            <desc shapeID="3" type="0" basicInfo-basicType="0" basicInfo-roundedRectRadius="12" basicInfo-polygonSides="6" basicInfo-starPoints="5" bounding="rect(-24.9,-5.45007,49.8,10.9)" text="" font-familyName="" font-pixelSize="20" font-bold="0" font-underline="0" font-alignment="1" strokeStyle="0" markerStart="0" markerEnd="0" shadowEnabled="0" shadowOffsetX="0" shadowOffsetY="2" shadowBlur="4" shadowOpacity="160" blurEnabled="0" blurRadius="4" transform="matrix(1,0,0,1,704.4,842.149)" pers-center="0,0" pers-size="0,0" pers-start="0,0" pers-end="0,0" locked="0" mesh="" flag=""/>
            <path id="shapePath3" d="M689.5,847.299 L689.5,838.999 L685.9,847.299 L684.6,847.299 L681,838.999 L681,847.299 L679.5,847.299 L679.5,836.699 L681.5,836.699 L685.2,845.399 L689,836.699 L691,836.699 L691,847.299 L689.5,847.299 M696,843.199 L697.9,842.899 C698.3,842.799 698.5,842.599 698.5,842.399 C698.5,841.699 698,841.099 696.9,841.099 C695.9,841.099 695.4,841.699 695.3,842.599 L693.9,842.299 C694.1,840.899 695.3,839.999 696.9,839.999 C699.1,839.999 699.9,841.199 699.9,842.599 L699.9,846.199 C699.9,846.799 700,847.199 700,847.399 L698.6,847.399 C698.6,847.199 698.5,846.899 698.5,846.399 C698.2,846.899 697.5,847.599 696.2,847.599 C694.7,847.599 693.8,846.599 693.8,845.399 C693.8,844.099 694.7,843.399 696,843.199 M698.5,844.299 L698.5,843.999 L696.3,844.299 C695.7,844.399 695.3,844.699 695.3,845.399 C695.3,845.899 695.7,846.399 696.5,846.399 C697.5,846.399 698.5,845.799 698.5,844.299 M703.4,844.999 C703.5,845.799 704.1,846.299 705.1,846.299 C705.9,846.299 706.3,845.899 706.3,845.299 C706.3,844.899 706,844.499 705.4,844.399 L704.2,844.099 C703.1,843.899 702.4,843.099 702.4,842.099 C702.4,840.899 703.6,839.799 705,839.799 C707,839.799 707.6,841.099 707.7,841.699 L706.5,842.199 C706.4,841.799 706.1,840.999 705,840.999 C704.3,840.999 703.8,841.499 703.8,841.999 C703.8,842.399 704.1,842.799 704.6,842.899 L705.8,843.199 C707.1,843.499 707.8,844.299 707.8,845.299 C707.8,846.299 706.9,847.499 705.2,847.499 C703.2,847.499 702.4,846.199 702.3,845.399 L703.4,844.999 M712.2,840.099 L713.8,840.099 L713.8,841.399 L712.2,841.399 L712.2,845.199 C712.2,845.899 712.5,846.199 713.2,846.199 C713.4,846.199 713.6,846.199 713.8,846.099 L713.8,847.299 C713.7,847.299 713.3,847.399 712.8,847.399 C711.6,847.399 710.8,846.599 710.8,845.299 L710.8,841.299 L709.4,841.299 L709.4,839.999 L709.8,839.999 C710.6,839.999 710.9,839.499 710.9,838.899 L710.9,837.699 L712.2,837.699 L712.2,840.099 M722.6,845.299 C722.2,846.599 721,847.599 719.4,847.599 C717.5,847.599 715.8,846.199 715.8,843.699 C715.8,841.399 717.4,839.899 719.2,839.899 C721.4,839.899 722.7,841.399 722.7,843.699 L722.7,844.099 L717.3,844.099 C717.3,845.399 718.3,846.299 719.5,846.299 C720.7,846.299 721.3,845.699 721.5,844.799 L722.6,845.299 M721.2,842.999 C721.2,841.999 720.5,841.199 719.2,841.199 C718,841.199 717.3,842.099 717.2,842.999 L721.2,842.999 M729.2,841.599 L728.6,841.599 C727.4,841.599 726.6,842.199 726.6,843.799 L726.6,847.399 L725.2,847.399 L725.2,840.199 L726.6,840.199 L726.6,841.499 C727.1,840.399 728,840.099 728.8,840.099 L729.3,840.099 L729.3,841.599 L729.2,841.599 Z" style="stroke:none;fill-rule:nonzero;fill:#404040;fill-opacity:1;"/>
        </g>
        <g id="Shape4">
            <desc shapeID="4" type="0" basicInfo-basicType="0" basicInfo-roundedRectRadius="12" basicInfo-polygonSides="6" basicInfo-starPoints="5" bounding="rect(-311.4,-75.05,622.8,150.1)" text="" font-familyName="" font-pixelSize="20" font-bold="0" font-underline="0" font-alignment="1" strokeStyle="0" markerStart="0" markerEnd="0" shadowEnabled="0" shadowOffsetX="0" shadowOffsetY="2" shadowBlur="4" shadowOpacity="160" blurEnabled="0" blurRadius="4" transform="matrix(1,0,0,1,402.4,721.249)" pers-center="0,0" pers-size="0,0" pers-start="0,0" pers-end="0,0" locked="0" mesh="" flag=""/>
            <path id="shapePath4" d="M702.9,772.799 L702.9,796.299 M692.1,781.499 L702.9,770.699 L713.8,781.499 M530.8,646.199 L447.8,646.199 L489,646.199 M292.8,728.199 L661.9,728.199 M334.1,687.199 C334.1,709.799 315.7,728.199 293.1,728.199 L91,728.199 M334.1,687.199 C334.1,664.599 352.5,646.199 375.1,646.199 L405.8,646.199 M602.7,687.199 C602.7,709.799 621.1,728.199 643.7,728.199 L703.9,728.199 M602.7,687.199 C602.7,664.599 584.3,646.199 561.7,646.199 L531,646.199 " style="stroke:#404040;stroke-opacity:1;stroke-width:4;stroke-linejoin:round;stroke-miterlimit:2;stroke-linecap:round;fill:none;"/>
        </g>
        <g id="Shape5">
            <desc shapeID="5" type="0" basicInfo-basicType="0" basicInfo-roundedRectRadius="12" basicInfo-polygonSides="6" basicInfo-starPoints="5" bounding="rect(-21,-21,42,42)" text="" font-familyName="" font-pixelSize="20" font-bold="0" font-underline="0" font-alignment="1" strokeStyle="0" markerStart="0" markerEnd="0" shadowEnabled="0" shadowOffsetX="0" shadowOffsetY="2" shadowBlur="4" shadowOpacity="160" blurEnabled="0" blurRadius="4" transform="matrix(1,0,0,1,236.5,728.199)" pers-center="0,0" pers-size="0,0" pers-start="0,0" pers-end="0,0" locked="0" mesh="" flag=""/>
            <path id="shapePath5" d="M257.5,728.199 C257.5,739.797 248.098,749.199 236.5,749.199 C224.902,749.199 215.5,739.797 215.5,728.199 C215.5,716.601 224.902,707.199 236.5,707.199 C248.098,707.199 257.5,716.601 257.5,728.199 Z" style="stroke:#404040;stroke-opacity:1;stroke-width:4;stroke-linejoin:round;stroke-miterlimit:2;stroke-linecap:round;fill-rule:evenodd;fill:#ffffff;fill-opacity:1;"/>
        </g>
        <g id="Shape6">
            <desc shapeID="6" type="0" basicInfo-basicType="0" basicInfo-roundedRectRadius="12" basicInfo-polygonSides="6" basicInfo-starPoints="5" bounding="rect(-21,-21,42,42)" text="" font-familyName="" font-pixelSize="20" font-bold="0" font-underline="0" font-alignment="1" strokeStyle="0" markerStart="0" markerEnd="0" shadowEnabled="0" shadowOffsetX="0" shadowOffsetY="2" shadowBlur="4" shadowOpacity="160" blurEnabled="0" blurRadius="4" transform="matrix(1,0,0,1,153.2,728.199)" pers-center="0,0" pers-size="0,0" pers-start="0,0" pers-end="0,0" locked="0" mesh="" flag=""/>
            <path id="shapePath6" d="M174.2,728.199 C174.2,739.797 164.798,749.199 153.2,749.199 C141.602,749.199 132.2,739.797 132.2,728.199 C132.2,716.601 141.602,707.199 153.2,707.199 C164.798,707.199 174.2,716.601 174.2,728.199 Z" style="stroke:#404040;stroke-opacity:1;stroke-width:4;stroke-linejoin:round;stroke-miterlimit:2;stroke-linecap:round;fill-rule:evenodd;fill:#ffffff;fill-opacity:1;"/>
        </g>
        <g id="Shape7">
            <desc shapeID="7" type="0" basicInfo-basicType="0" basicInfo-roundedRectRadius="12" basicInfo-polygonSides="6" basicInfo-starPoints="5" bounding="rect(-21,-21,42,42)" text="" font-familyName="" font-pixelSize="20" font-bold="0" font-underline="0" font-alignment="1" strokeStyle="0" markerStart="0" markerEnd="0" shadowEnabled="0" shadowOffsetX="0" shadowOffsetY="2" shadowBlur="4" shadowOpacity="160" blurEnabled="0" blurRadius="4" transform="matrix(1,0,0,1,510,646.199)" pers-center="0,0" pers-size="0,0" pers-start="0,0" pers-end="0,0" locked="0" mesh="" flag=""/>
            <path id="shapePath7" d="M531,646.199 C531,657.797 521.598,667.199 510,667.199 C498.402,667.199 489,657.797 489,646.199 C489,634.601 498.402,625.199 510,625.199 C521.598,625.199 531,634.601 531,646.199 Z" style="stroke:#404040;stroke-opacity:1;stroke-width:4;stroke-linejoin:round;stroke-miterlimit:2;stroke-linecap:round;fill-rule:evenodd;fill:#ffffff;fill-opacity:1;"/>
        </g>
        <g id="Shape8">
            <desc shapeID="8" type="0" basicInfo-basicType="0" basicInfo-roundedRectRadius="12" basicInfo-polygonSides="6" basicInfo-starPoints="5" bounding="rect(-21,-21,42,42)" text="" font-familyName="" font-pixelSize="20" font-bold="0" font-underline="0" font-alignment="1" strokeStyle="0" markerStart="0" markerEnd="0" shadowEnabled="0" shadowOffsetX="0" shadowOffsetY="2" shadowBlur="4" shadowOpacity="160" blurEnabled="0" blurRadius="4" transform="matrix(1,0,0,1,426.8,646.199)" pers-center="0,0" pers-size="0,0" pers-start="0,0" pers-end="0,0" locked="0" mesh="" flag=""/>
            <path id="shapePath8" d="M447.8,646.199 C447.8,657.797 438.398,667.199 426.8,667.199 C415.202,667.199 405.8,657.797 405.8,646.199 C405.8,634.601 415.202,625.199 426.8,625.199 C438.398,625.199 447.8,634.601 447.8,646.199 Z" style="stroke:#404040;stroke-opacity:1;stroke-width:4;stroke-linejoin:round;stroke-miterlimit:2;stroke-linecap:round;fill-rule:evenodd;fill:#ffffff;fill-opacity:1;"/>
        </g>
        <g id="Shape9">
            <desc shapeID="9" type="0" basicInfo-basicType="0" basicInfo-roundedRectRadius="12" basicInfo-polygonSides="6" basicInfo-starPoints="5" bounding="rect(-21,-21,42,42)" text="" font-familyName="" font-pixelSize="20" font-bold="0" font-underline="0" font-alignment="1" strokeStyle="0" markerStart="0" markerEnd="0" shadowEnabled="0" shadowOffsetX="0" shadowOffsetY="2" shadowBlur="4" shadowOpacity="160" blurEnabled="0" blurRadius="4" transform="matrix(1,0,0,1,426.8,728.199)" pers-center="0,0" pers-size="0,0" pers-start="0,0" pers-end="0,0" locked="0" mesh="" flag=""/>
            <path id="shapePath9" d="M447.8,728.199 C447.8,739.797 438.398,749.199 426.8,749.199 C415.202,749.199 405.8,739.797 405.8,728.199 C405.8,716.601 415.202,707.199 426.8,707.199 C438.398,707.199 447.8,716.601 447.8,728.199 Z" style="stroke:#404040;stroke-opacity:1;stroke-width:4;stroke-linejoin:round;stroke-miterlimit:2;stroke-linecap:round;fill-rule:evenodd;fill:#ffffff;fill-opacity:1;"/>
        </g>
        <g id="Shape10">
            <desc shapeID="10" type="0" basicInfo-basicType="0" basicInfo-roundedRectRadius="12" basicInfo-polygonSides="6" basicInfo-starPoints="5" bounding="rect(-21,-21,42,42)" text="" font-familyName="" font-pixelSize="20" font-bold="0" font-underline="0" font-alignment="1" strokeStyle="0" markerStart="0" markerEnd="0" shadowEnabled="0" shadowOffsetX="0" shadowOffsetY="2" shadowBlur="4" shadowOpacity="160" blurEnabled="0" blurRadius="4" transform="matrix(1,0,0,1,702.9,728.199)" pers-center="0,0" pers-size="0,0" pers-start="0,0" pers-end="0,0" locked="0" mesh="" flag=""/>
            <path id="shapePath10" d="M723.9,728.199 C723.9,739.797 714.498,749.199 702.9,749.199 C691.302,749.199 681.9,739.797 681.9,728.199 C681.9,716.601 691.302,707.199 702.9,707.199 C714.498,707.199 723.9,716.601 723.9,728.199 Z" style="stroke:#404040;stroke-opacity:1;stroke-width:4;stroke-linejoin:round;stroke-miterlimit:2;stroke-linecap:butt;fill-rule:evenodd;fill:#59afe1;fill-opacity:1;"/>
        </g>
        <g id="Shape11">
            <desc shapeID="11" type="0" basicInfo-basicType="0" basicInfo-roundedRectRadius="12" basicInfo-polygonSides="6" basicInfo-starPoints="5" bounding="rect(-21,-21,42,42)" text="" font-familyName="" font-pixelSize="20" font-bold="0" font-underline="0" font-alignment="1" strokeStyle="0" markerStart="0" markerEnd="0" shadowEnabled="0" shadowOffsetX="0" shadowOffsetY="2" shadowBlur="4" shadowOpacity="160" blurEnabled="0" blurRadius="4" transform="matrix(1,0,0,1,70,728.199)" pers-center="0,0" pers-size="0,0" pers-start="0,0" pers-end="0,0" locked="0" mesh="" flag=""/>
            <path id="shapePath11" d="M91,728.199 C91,739.797 81.598,749.199 70,749.199 C58.402,749.199 49,739.797 49,728.199 C49,716.601 58.402,707.199 70,707.199 C81.598,707.199 91,716.601 91,728.199 Z" style="stroke:#404040;stroke-opacity:1;stroke-width:4;stroke-linejoin:round;stroke-miterlimit:2;stroke-linecap:round;fill-rule:evenodd;fill:#ffffff;fill-opacity:1;"/>
        </g>
        <g id="Shape12">
            <desc shapeID="12" type="0" basicInfo-basicType="0" basicInfo-roundedRectRadius="12" basicInfo-polygonSides="6" basicInfo-starPoints="5" bounding="rect(-10.85,-12.85,21.7,25.7)" text="" font-familyName="" font-pixelSize="20" font-bold="0" font-underline="0" font-alignment="1" strokeStyle="0" markerStart="0" markerEnd="0" shadowEnabled="0" shadowOffsetX="0" shadowOffsetY="2" shadowBlur="4" shadowOpacity="160" blurEnabled="0" blurRadius="4" transform="matrix(1,0,0,1,510.05,592.849)" pers-center="0,0" pers-size="0,0" pers-start="0,0" pers-end="0,0" locked="0" mesh="" flag=""/>
            <path id="shapePath12" d="M510,603.499 L510,579.999 M520.9,594.799 L510,605.699 L499.2,594.799 " style="stroke:#404040;stroke-opacity:1;stroke-width:4;stroke-linejoin:round;stroke-miterlimit:2;stroke-linecap:round;fill:none;"/>
        </g>
        <g id="Shape13">
            <desc shapeID="13" type="0" basicInfo-basicType="0" basicInfo-roundedRectRadius="12" basicInfo-polygonSides="6" basicInfo-starPoints="5" bounding="rect(-70.8,-25,141.6,50)" text="" font-familyName="" font-pixelSize="20" font-bold="0" font-underline="0" font-alignment="1" strokeStyle="0" markerStart="0" markerEnd="0" shadowEnabled="0" shadowOffsetX="0" shadowOffsetY="2" shadowBlur="4" shadowOpacity="160" blurEnabled="0" blurRadius="4" transform="matrix(1,0,0,1,510.9,532.999)" pers-center="0,0" pers-size="0,0" pers-start="0,0" pers-end="0,0" locked="0" mesh="" flag=""/>
            <path id="shapePath13" d="M440.1,507.999 L581.7,507.999 L581.7,557.999 L440.1,557.999 L440.1,507.999 Z" style="stroke:#404040;stroke-opacity:1;stroke-width:4;stroke-linejoin:round;stroke-miterlimit:2;stroke-linecap:round;fill-rule:nonzero;fill:#b18be8;fill-opacity:1;"/>
        </g>
        <g id="Shape14">
            <desc shapeID="14" type="0" basicInfo-basicType="0" basicInfo-roundedRectRadius="12" basicInfo-polygonSides="6" basicInfo-starPoints="5" bounding="rect(-50.1,-5.55005,100.2,11.1)" text="" font-familyName="" font-pixelSize="20" font-bold="0" font-underline="0" font-alignment="1" strokeStyle="0" markerStart="0" markerEnd="0" shadowEnabled="0" shadowOffsetX="0" shadowOffsetY="2" shadowBlur="4" shadowOpacity="160" blurEnabled="0" blurRadius="4" transform="matrix(1,0,0,1,511.9,533.749)" pers-center="0,0" pers-size="0,0" pers-start="0,0" pers-end="0,0" locked="0" mesh="" flag=""/>
            <path id="shapePath14" d="M468,531.299 C467.9,530.499 467.2,529.499 465.8,529.499 C464.6,529.499 463.7,530.299 463.7,531.299 C463.7,532.099 464.2,532.699 465.1,532.799 L466.7,533.099 C468.5,533.499 469.5,534.599 469.5,536.099 C469.5,537.699 468.1,539.199 465.8,539.199 C463.2,539.199 462,537.599 461.8,535.999 L463.2,535.599 C463.3,536.799 464.1,537.899 465.7,537.899 C467.2,537.899 467.9,537.099 467.9,536.199 C467.9,535.399 467.4,534.799 466.3,534.599 L464.8,534.299 C463.3,533.999 462.2,532.999 462.2,531.399 C462.2,529.699 463.7,528.199 465.7,528.199 C468.1,528.199 469.1,529.699 469.3,530.799 L468,531.299 M478.6,535.399 C478.6,537.599 477.1,539.199 474.9,539.199 C472.7,539.199 471.2,537.599 471.2,535.399 C471.2,533.199 472.7,531.599 474.9,531.599 C477.1,531.599 478.6,533.199 478.6,535.399 M477.2,535.399 C477.2,533.699 476.1,532.799 475,532.799 C473.9,532.799 472.8,533.699 472.8,535.399 C472.8,537.099 473.9,537.999 475,537.999 C476.1,537.999 477.2,537.099 477.2,535.399 M481.2,538.999 L481.2,531.799 L482.5,531.799 L482.5,532.799 C483,531.999 483.9,531.599 484.7,531.599 C485.6,531.599 486.5,531.999 486.9,532.999 C487.5,531.999 488.4,531.599 489.3,531.599 C490.6,531.599 491.8,532.499 491.8,534.299 L491.8,538.999 L490.4,538.999 L490.4,534.499 C490.4,533.599 489.9,532.899 488.9,532.899 C487.9,532.899 487.2,533.699 487.2,534.699 L487.2,539.099 L485.8,539.099 L485.8,534.599 C485.8,533.699 485.4,532.999 484.3,532.999 C483.3,532.999 482.6,533.799 482.6,534.799 L482.6,539.099 L481.2,539.099 L481.2,538.999 M501.1,536.999 C500.7,538.299 499.5,539.299 497.9,539.299 C496,539.299 494.3,537.899 494.3,535.399 C494.3,533.099 495.9,531.599 497.7,531.599 C499.9,531.599 501.2,533.099 501.2,535.399 L501.2,535.799 L495.8,535.799 C495.8,537.099 496.8,537.999 498,537.999 C499.2,537.999 499.8,537.399 500,536.499 L501.1,536.999 M499.6,534.699 C499.6,533.699 498.9,532.899 497.6,532.899 C496.4,532.899 495.7,533.799 495.6,534.699 L499.6,534.699 M508.3,538.999 L508.3,528.399 L514.8,528.399 L514.8,529.799 L509.8,529.799 L509.8,533.199 L514.3,533.199 L514.3,534.599 L509.8,534.599 L509.8,539.099 L508.3,539.099 L508.3,538.999 M522.9,536.999 C522.5,538.299 521.3,539.299 519.7,539.299 C517.8,539.299 516.1,537.899 516.1,535.399 C516.1,533.099 517.7,531.599 519.5,531.599 C521.7,531.599 523,533.099 523,535.399 L523,535.799 L517.6,535.799 C517.6,537.099 518.6,537.999 519.8,537.999 C521,537.999 521.6,537.399 521.8,536.499 L522.9,536.999 M521.5,534.699 C521.5,533.699 520.8,532.899 519.5,532.899 C518.3,532.899 517.6,533.799 517.5,534.699 L521.5,534.699 M527.3,534.899 L529.2,534.599 C529.6,534.499 529.8,534.299 529.8,534.099 C529.8,533.399 529.3,532.799 528.2,532.799 C527.2,532.799 526.7,533.399 526.6,534.299 L525.2,533.999 C525.4,532.599 526.6,531.699 528.2,531.699 C530.4,531.699 531.2,532.899 531.2,534.299 L531.2,537.899 C531.2,538.499 531.3,538.899 531.3,539.099 L529.9,539.099 C529.9,538.899 529.8,538.599 529.8,538.099 C529.5,538.599 528.8,539.299 527.5,539.299 C526,539.299 525.1,538.299 525.1,537.099 C525.1,535.799 526,535.099 527.3,534.899 M529.8,535.899 L529.8,535.599 L527.6,535.899 C527,535.999 526.5,536.299 526.5,536.999 C526.5,537.499 526.9,537.999 527.7,537.999 C528.9,538.099 529.8,537.499 529.8,535.899 M536,531.799 L537.6,531.799 L537.6,533.099 L536,533.099 L536,536.899 C536,537.599 536.3,537.899 537,537.899 C537.2,537.899 537.4,537.899 537.6,537.799 L537.6,538.999 C537.5,538.999 537.1,539.099 536.6,539.099 C535.4,539.099 534.6,538.299 534.6,536.999 L534.6,532.999 L533.2,532.999 L533.2,531.699 L533.6,531.699 C534.4,531.699 534.7,531.199 534.7,530.599 L534.7,529.399 L536,529.399 L536,531.799 M542.8,539.199 C541.1,539.199 540.1,537.899 540.1,536.299 L540.1,531.799 L541.5,531.799 L541.5,536.099 C541.5,537.099 541.9,537.999 543.1,537.999 C544.2,537.999 544.8,537.199 544.8,536.199 L544.8,531.799 L546.2,531.799 L546.2,537.699 C546.2,538.299 546.2,538.799 546.3,538.999 L545,538.999 C545,538.799 544.9,538.399 544.9,538.099 C544.6,538.899 543.7,539.199 542.8,539.199 M553.5,533.199 L552.9,533.199 C551.7,533.199 550.9,533.799 550.9,535.399 L550.9,538.999 L549.5,538.999 L549.5,531.799 L550.9,531.799 L550.9,533.099 C551.4,531.999 552.3,531.699 553.1,531.699 L553.6,531.699 L553.6,533.199 L553.5,533.199 M561.9,536.999 C561.5,538.299 560.3,539.299 558.7,539.299 C556.8,539.299 555.1,537.899 555.1,535.399 C555.1,533.099 556.7,531.599 558.5,531.599 C560.7,531.599 562,533.099 562,535.399 L562,535.799 L556.6,535.799 C556.6,537.099 557.6,537.999 558.8,537.999 C560,537.999 560.6,537.399 560.8,536.499 L561.9,536.999 M560.5,534.699 C560.5,533.699 559.8,532.899 558.5,532.899 C557.3,532.899 556.6,533.799 556.5,534.699 L560.5,534.699 Z" style="stroke:none;fill-rule:nonzero;fill:#404040;fill-opacity:1;"/>
        </g>
        <g id="Shape15">
            <desc shapeID="15" type="0" basicInfo-basicType="0" basicInfo-roundedRectRadius="12" basicInfo-polygonSides="6" basicInfo-starPoints="5" bounding="rect(-56.35,-7.05,112.7,14.1)" text="" font-familyName="" font-pixelSize="20" font-bold="0" font-underline="0" font-alignment="1" strokeStyle="0" markerStart="0" markerEnd="0" shadowEnabled="0" shadowOffsetX="0" shadowOffsetY="2" shadowBlur="4" shadowOpacity="160" blurEnabled="0" blurRadius="4" transform="matrix(1,0,0,1,399.75,14.55)" pers-center="0,0" pers-size="0,0" pers-start="0,0" pers-end="0,0" locked="0" mesh="" flag=""/>
            <path id="shapePath15" d="M346.9,7.8 C348.9,7.8 350.1,9 350.1,10.7 C350.1,11.8 349.4,12.7 348.5,13 C349.7,13.3 350.4,14.4 350.4,15.6 C350.4,17.3 349.1,18.5 347.1,18.5 L343.4,18.5 L343.4,7.8 L346.9,7.8 M346.8,12.5 C348,12.5 348.7,11.8 348.7,10.8 C348.7,9.8 348,9.1 346.8,9.1 L345,9.1 L345,12.5 L346.8,12.5 M347,17.2 C348.2,17.2 349,16.5 349,15.5 C349,14.5 348.4,13.8 347.1,13.8 L345,13.8 L345,17.2 L347,17.2 M359.4,16.4 C359,17.7 357.8,18.7 356.2,18.7 C354.3,18.7 352.6,17.3 352.6,14.8 C352.6,12.5 354.2,11 356,11 C358.2,11 359.5,12.5 359.5,14.8 L359.5,15.3 L354,15.3 C354,16.6 355,17.5 356.2,17.5 C357.4,17.5 358,16.9 358.2,16 L359.4,16.4 M358,14.1 C358,13.1 357.3,12.3 356,12.3 C354.8,12.3 354.1,13.2 354,14.1 L358,14.1 M363.9,12.5 L363.9,18.4 L362.4,18.4 L362.4,12.5 L361.1,12.5 L361.1,11.2 L362.4,11.2 L362.4,10 C362.4,8.4 363.5,7.5 364.8,7.5 C365.3,7.5 365.6,7.6 365.6,7.7 L365.6,9 C365.5,9 365.3,8.9 365,8.9 C364.5,8.9 363.9,9.1 363.9,10.1 L363.9,11.2 L365.6,11.2 L365.6,12.5 L363.9,12.5 M374.4,14.8 C374.4,17 372.9,18.6 370.7,18.6 C368.5,18.6 367,17 367,14.8 C367,12.6 368.5,11 370.7,11 C372.9,11 374.4,12.6 374.4,14.8 M373,14.8 C373,13.1 371.9,12.2 370.8,12.2 C369.7,12.2 368.6,13.1 368.6,14.8 C368.6,16.5 369.7,17.4 370.8,17.4 C371.9,17.4 373,16.5 373,14.8 M381,12.7 L380.4,12.7 C379.2,12.7 378.4,13.3 378.4,14.9 L378.4,18.5 L377,18.5 L377,11.3 L378.4,11.3 L378.4,12.6 C378.9,11.5 379.8,11.2 380.6,11.2 L381.1,11.2 L381.1,12.7 L381,12.7 M389.4,16.4 C389,17.7 387.8,18.7 386.2,18.7 C384.3,18.7 382.6,17.3 382.6,14.8 C382.6,12.5 384.2,11 386,11 C388.2,11 389.5,12.5 389.5,14.8 L389.5,15.3 L384,15.3 C384,16.6 385,17.5 386.2,17.5 C387.4,17.5 388,16.9 388.2,16 L389.4,16.4 M388,14.1 C388,13.1 387.3,12.3 386,12.3 C384.8,12.3 384.1,13.2 384,14.1 L388,14.1 M406.7,18.5 L406.7,10.2 L403.1,18.5 L401.8,18.5 L398.2,10.2 L398.2,18.5 L396.7,18.5 L396.7,7.8 L398.7,7.8 L402.4,16.5 L406.2,7.8 L408.2,7.8 L408.2,18.4 L406.7,18.4 L406.7,18.5 M417.8,16.4 C417.4,17.7 416.2,18.7 414.6,18.7 C412.7,18.7 411,17.3 411,14.8 C411,12.5 412.6,11 414.4,11 C416.6,11 417.9,12.5 417.9,14.8 L417.9,15.3 L412.5,15.3 C412.5,16.6 413.5,17.5 414.7,17.5 C415.9,17.5 416.5,16.9 416.7,16 L417.8,16.4 M416.3,14.1 C416.3,13.1 415.6,12.3 414.3,12.3 C413.1,12.3 412.4,13.2 412.3,14.1 L416.3,14.1 M424.4,12.7 L423.8,12.7 C422.6,12.7 421.8,13.3 421.8,14.9 L421.8,18.5 L420.4,18.5 L420.4,11.3 L421.8,11.3 L421.8,12.6 C422.3,11.5 423.2,11.2 424,11.2 L424.5,11.2 L424.5,12.7 L424.4,12.7 M427.4,18.5 C427.5,19.5 428.3,20.3 429.4,20.3 C430.9,20.3 431.6,19.5 431.6,18 L431.6,17 C431.3,17.7 430.5,18.2 429.4,18.2 C427.5,18.2 426.1,16.7 426.1,14.7 C426.1,12.7 427.4,11.2 429.4,11.2 C430.5,11.2 431.3,11.6 431.6,12.3 L431.6,11.3 L433,11.3 L433,18 C433,19.8 432.1,21.6 429.4,21.6 C427.6,21.6 426.3,20.5 426.1,18.9 L427.4,18.5 M431.6,14.6 C431.6,13.2 430.8,12.3 429.5,12.3 C428.3,12.3 427.4,13.2 427.4,14.6 C427.4,16 428.2,16.9 429.5,16.9 C430.8,16.9 431.6,16 431.6,14.6 M436.6,7.5 C437.2,7.5 437.6,8 437.6,8.5 C437.6,9.1 437.2,9.5 436.6,9.5 C436,9.5 435.6,9 435.6,8.5 C435.6,7.9 436.1,7.5 436.6,7.5 M435.9,18.5 L435.9,11.3 L437.3,11.3 L437.3,18.5 L435.9,18.5 M441.9,18.5 L440.5,18.5 L440.5,11.3 L441.9,11.3 L441.9,12.3 C442.4,11.4 443.3,11.1 444.1,11.1 C445.8,11.1 446.7,12.3 446.7,13.9 L446.7,18.5 L445.3,18.5 L445.3,14.2 C445.3,13.2 444.9,12.4 443.6,12.4 C442.5,12.4 441.9,13.3 441.9,14.4 L441.9,18.5 M450.5,18.5 C450.6,19.5 451.4,20.3 452.5,20.3 C454,20.3 454.7,19.5 454.7,18 L454.7,17 C454.4,17.7 453.6,18.2 452.5,18.2 C450.6,18.2 449.2,16.7 449.2,14.7 C449.2,12.7 450.5,11.2 452.5,11.2 C453.6,11.2 454.4,11.6 454.7,12.3 L454.7,11.3 L456.1,11.3 L456.1,18 C456.1,19.8 455.2,21.6 452.5,21.6 C450.7,21.6 449.4,20.5 449.2,18.9 L450.5,18.5 M454.7,14.6 C454.7,13.2 453.9,12.3 452.6,12.3 C451.4,12.3 450.5,13.2 450.5,14.6 C450.5,16 451.3,16.9 452.6,16.9 C453.9,16.9 454.7,16 454.7,14.6 Z" style="stroke:none;fill-rule:nonzero;fill:#999999;fill-opacity:1;"/>
        </g>
        <g id="Shape16">
            <desc shapeID="16" type="0" basicInfo-basicType="0" basicInfo-roundedRectRadius="12" basicInfo-polygonSides="6" basicInfo-starPoints="5" bounding="rect(-48.1,-25,96.2,50)" text="" font-familyName="" font-pixelSize="20" font-bold="0" font-underline="0" font-alignment="1" strokeStyle="0" markerStart="0" markerEnd="0" shadowEnabled="0" shadowOffsetX="0" shadowOffsetY="2" shadowBlur="4" shadowOpacity="160" blurEnabled="0" blurRadius="4" transform="matrix(1,0,0,1,511.4,368.846)" pers-center="0,0" pers-size="0,0" pers-start="0,0" pers-end="0,0" locked="0" mesh="" flag=""/>
            <path id="shapePath16" d="M463.3,343.846 L559.5,343.846 L559.5,393.846 L463.3,393.846 L463.3,343.846 Z" style="stroke:#404040;stroke-opacity:1;stroke-width:4;stroke-linejoin:round;stroke-miterlimit:2;stroke-linecap:butt;fill-rule:nonzero;fill:#b3e3ff;fill-opacity:1;"/>
        </g>
        <g id="Shape17">
            <desc shapeID="17" type="0" basicInfo-basicType="0" basicInfo-roundedRectRadius="12" basicInfo-polygonSides="6" basicInfo-starPoints="5" bounding="rect(-24.9,-5.39999,49.8,10.8)" text="" font-familyName="" font-pixelSize="20" font-bold="0" font-underline="0" font-alignment="1" strokeStyle="0" markerStart="0" markerEnd="0" shadowEnabled="0" shadowOffsetX="0" shadowOffsetY="2" shadowBlur="4" shadowOpacity="160" blurEnabled="0" blurRadius="4" transform="matrix(1,0,0,1,512.9,369.646)" pers-center="0,0" pers-size="0,0" pers-start="0,0" pers-end="0,0" locked="0" mesh="" flag=""/>
            <path id="shapePath17" d="M498,374.846 L498,366.546 L494.4,374.846 L493,374.846 L489.4,366.546 L489.4,374.846 L488,374.846 L488,364.246 L490,364.246 L493.7,372.946 L497.5,364.246 L499.5,364.246 L499.5,374.846 L498,374.846 M504.4,370.646 L506.3,370.346 C506.7,370.246 506.9,370.046 506.9,369.846 C506.9,369.146 506.4,368.546 505.3,368.546 C504.3,368.546 503.8,369.146 503.7,370.046 L502.3,369.746 C502.5,368.346 503.7,367.446 505.3,367.446 C507.5,367.446 508.3,368.646 508.3,370.046 L508.3,373.646 C508.3,374.246 508.4,374.646 508.4,374.846 L507,374.846 C507,374.646 506.9,374.346 506.9,373.846 C506.6,374.346 505.9,375.046 504.6,375.046 C503.1,375.046 502.2,374.046 502.2,372.846 C502.3,371.546 503.2,370.846 504.4,370.646 M506.9,371.746 L506.9,371.446 L504.7,371.746 C504.1,371.846 503.7,372.146 503.7,372.846 C503.7,373.346 504.1,373.846 504.9,373.846 C506,373.846 506.9,373.346 506.9,371.746 M511.9,372.546 C512,373.346 512.6,373.846 513.6,373.846 C514.4,373.846 514.8,373.446 514.8,372.846 C514.8,372.446 514.5,372.046 513.9,371.946 L512.7,371.646 C511.6,371.446 510.9,370.646 510.9,369.646 C510.9,368.446 512.1,367.346 513.5,367.346 C515.5,367.346 516.1,368.646 516.2,369.246 L515,369.746 C514.9,369.346 514.6,368.546 513.5,368.546 C512.8,368.546 512.3,369.046 512.3,369.546 C512.3,369.946 512.6,370.346 513.1,370.446 L514.3,370.746 C515.6,371.046 516.3,371.846 516.3,372.846 C516.3,373.846 515.4,375.046 513.7,375.046 C511.7,375.046 510.9,373.746 510.8,372.946 L511.9,372.546 M520.7,367.646 L522.3,367.646 L522.3,368.946 L520.7,368.946 L520.7,372.746 C520.7,373.446 521,373.746 521.7,373.746 C521.9,373.746 522.1,373.746 522.3,373.646 L522.3,374.846 C522.2,374.846 521.8,374.946 521.3,374.946 C520.1,374.946 519.3,374.146 519.3,372.846 L519.3,368.846 L517.9,368.846 L517.9,367.546 L518.3,367.546 C519.1,367.546 519.4,367.046 519.4,366.446 L519.4,365.246 L520.7,365.246 L520.7,367.646 M531.1,372.746 C530.7,374.046 529.5,375.046 527.9,375.046 C526,375.046 524.3,373.646 524.3,371.146 C524.3,368.846 525.9,367.346 527.7,367.346 C529.9,367.346 531.2,368.846 531.2,371.146 L531.2,371.546 L525.8,371.546 C525.8,372.846 526.8,373.746 528,373.746 C529.2,373.746 529.8,373.146 530,372.246 L531.1,372.746 M529.7,370.446 C529.7,369.446 529,368.646 527.7,368.646 C526.5,368.646 525.8,369.546 525.7,370.446 L529.7,370.446 M537.7,369.046 L537.1,369.046 C535.9,369.046 535.1,369.646 535.1,371.246 L535.1,374.846 L533.7,374.846 L533.7,367.646 L535.1,367.646 L535.1,368.946 C535.6,367.846 536.5,367.546 537.3,367.546 L537.8,367.546 L537.8,369.046 L537.7,369.046 Z" style="stroke:none;fill-rule:nonzero;fill:#404040;fill-opacity:1;"/>
        </g>
        <g id="Shape18">
            <desc shapeID="18" type="0" basicInfo-basicType="0" basicInfo-roundedRectRadius="12" basicInfo-polygonSides="6" basicInfo-starPoints="5" bounding="rect(-219.9,-75.1,439.8,150.2)" text="" font-familyName="" font-pixelSize="20" font-bold="0" font-underline="0" font-alignment="1" strokeStyle="0" markerStart="0" markerEnd="0" shadowEnabled="0" shadowOffsetX="0" shadowOffsetY="2" shadowBlur="4" shadowOpacity="160" blurEnabled="0" blurRadius="4" transform="matrix(1,0,0,1,395.5,248.746)" pers-center="0,0" pers-size="0,0" pers-start="0,0" pers-end="0,0" locked="0" mesh="" flag=""/>
            <path id="shapePath18" d="M511.4,300.346 L511.4,323.846 M500.5,309.046 L511.4,298.146 L522.3,309.046 M615.4,173.646 L532.4,173.646 L573.6,173.646 M377.5,255.646 L490.4,255.646 M418.7,214.646 C418.7,237.246 400.3,255.646 377.7,255.646 L175.6,255.646 M418.7,214.646 C418.7,192.046 437.1,173.646 459.7,173.646 L490.4,173.646 " style="stroke:#404040;stroke-opacity:1;stroke-width:4;stroke-linejoin:round;stroke-miterlimit:2;stroke-linecap:round;fill:none;"/>
        </g>
        <g id="Shape19">
            <desc shapeID="19" type="0" basicInfo-basicType="0" basicInfo-roundedRectRadius="12" basicInfo-polygonSides="6" basicInfo-starPoints="5" bounding="rect(-21,-21,42,42)" text="" font-familyName="" font-pixelSize="20" font-bold="0" font-underline="0" font-alignment="1" strokeStyle="0" markerStart="0" markerEnd="0" shadowEnabled="0" shadowOffsetX="0" shadowOffsetY="2" shadowBlur="4" shadowOpacity="160" blurEnabled="0" blurRadius="4" transform="matrix(1,0,0,1,321.1,255.646)" pers-center="0,0" pers-size="0,0" pers-start="0,0" pers-end="0,0" locked="0" mesh="" flag=""/>
            <path id="shapePath19" d="M342.1,255.646 C342.1,267.244 332.698,276.646 321.1,276.646 C309.502,276.646 300.1,267.244 300.1,255.646 C300.1,244.048 309.502,234.646 321.1,234.646 C332.698,234.646 342.1,244.048 342.1,255.646 Z" style="stroke:#404040;stroke-opacity:1;stroke-width:4;stroke-linejoin:round;stroke-miterlimit:2;stroke-linecap:round;fill-rule:evenodd;fill:#ffffff;fill-opacity:1;"/>
        </g>
        <g id="Shape20">
            <desc shapeID="20" type="0" basicInfo-basicType="0" basicInfo-roundedRectRadius="12" basicInfo-polygonSides="6" basicInfo-starPoints="5" bounding="rect(-21,-21,42,42)" text="" font-familyName="" font-pixelSize="20" font-bold="0" font-underline="0" font-alignment="1" strokeStyle="0" markerStart="0" markerEnd="0" shadowEnabled="0" shadowOffsetX="0" shadowOffsetY="2" shadowBlur="4" shadowOpacity="160" blurEnabled="0" blurRadius="4" transform="matrix(1,0,0,1,237.9,255.646)" pers-center="0,0" pers-size="0,0" pers-start="0,0" pers-end="0,0" locked="0" mesh="" flag=""/>
            <path id="shapePath20" d="M258.9,255.646 C258.9,267.244 249.498,276.646 237.9,276.646 C226.302,276.646 216.9,267.244 216.9,255.646 C216.9,244.048 226.302,234.646 237.9,234.646 C249.498,234.646 258.9,244.048 258.9,255.646 Z" style="stroke:#404040;stroke-opacity:1;stroke-width:4;stroke-linejoin:round;stroke-miterlimit:2;stroke-linecap:round;fill-rule:evenodd;fill:#ffffff;fill-opacity:1;"/>
        </g>
        <g id="Shape21">
            <desc shapeID="21" type="0" basicInfo-basicType="0" basicInfo-roundedRectRadius="12" basicInfo-polygonSides="6" basicInfo-starPoints="5" bounding="rect(-21,-21,42,42)" text="" font-familyName="" font-pixelSize="20" font-bold="0" font-underline="0" font-alignment="1" strokeStyle="0" markerStart="0" markerEnd="0" shadowEnabled="0" shadowOffsetX="0" shadowOffsetY="2" shadowBlur="4" shadowOpacity="160" blurEnabled="0" blurRadius="4" transform="matrix(1,0,0,1,594.6,173.645)" pers-center="0,0" pers-size="0,0" pers-start="0,0" pers-end="0,0" locked="0" mesh="" flag=""/>
            <path id="shapePath21" d="M615.6,173.645 C615.6,185.243 606.198,194.645 594.6,194.645 C583.002,194.645 573.6,185.243 573.6,173.645 C573.6,162.047 583.002,152.645 594.6,152.645 C606.198,152.645 615.6,162.047 615.6,173.645 Z" style="stroke:#404040;stroke-opacity:1;stroke-width:4;stroke-linejoin:round;stroke-miterlimit:2;stroke-linecap:round;fill-rule:evenodd;fill:#ffffff;fill-opacity:1;"/>
        </g>
        <g id="Shape22">
            <desc shapeID="22" type="0" basicInfo-basicType="0" basicInfo-roundedRectRadius="12" basicInfo-polygonSides="6" basicInfo-starPoints="5" bounding="rect(-21,-21,42,42)" text="" font-familyName="" font-pixelSize="20" font-bold="0" font-underline="0" font-alignment="1" strokeStyle="0" markerStart="0" markerEnd="0" shadowEnabled="0" shadowOffsetX="0" shadowOffsetY="2" shadowBlur="4" shadowOpacity="160" blurEnabled="0" blurRadius="4" transform="matrix(1,0,0,1,511.4,173.645)" pers-center="0,0" pers-size="0,0" pers-start="0,0" pers-end="0,0" locked="0" mesh="" flag=""/>
            <path id="shapePath22" d="M532.4,173.645 C532.4,185.243 522.998,194.645 511.4,194.645 C499.802,194.645 490.4,185.243 490.4,173.645 C490.4,162.047 499.802,152.645 511.4,152.645 C522.998,152.645 532.4,162.047 532.4,173.645 Z" style="stroke:#404040;stroke-opacity:1;stroke-width:4;stroke-linejoin:round;stroke-miterlimit:2;stroke-linecap:round;fill-rule:evenodd;fill:#ffffff;fill-opacity:1;"/>
        </g>
        <g id="Shape23">
            <desc shapeID="23" type="0" basicInfo-basicType="0" basicInfo-roundedRectRadius="12" basicInfo-polygonSides="6" basicInfo-starPoints="5" bounding="rect(-21,-21,42,42)" text="" font-familyName="" font-pixelSize="20" font-bold="0" font-underline="0" font-alignment="1" strokeStyle="0" markerStart="0" markerEnd="0" shadowEnabled="0" shadowOffsetX="0" shadowOffsetY="2" shadowBlur="4" shadowOpacity="160" blurEnabled="0" blurRadius="4" transform="matrix(1,0,0,1,511.4,255.646)" pers-center="0,0" pers-size="0,0" pers-start="0,0" pers-end="0,0" locked="0" mesh="" flag=""/>
            <path id="shapePath23" d="M532.4,255.646 C532.4,267.244 522.998,276.646 511.4,276.646 C499.802,276.646 490.4,267.244 490.4,255.646 C490.4,244.048 499.802,234.646 511.4,234.646 C522.998,234.646 532.4,244.048 532.4,255.646 Z" style="stroke:#404040;stroke-opacity:1;stroke-width:4;stroke-linejoin:round;stroke-miterlimit:2;stroke-linecap:butt;fill-rule:evenodd;fill:#59afe1;fill-opacity:1;"/>
        </g>
        <g id="Shape24">
            <desc shapeID="24" type="0" basicInfo-basicType="0" basicInfo-roundedRectRadius="12" basicInfo-polygonSides="6" basicInfo-starPoints="5" bounding="rect(-21,-21,42,42)" text="" font-familyName="" font-pixelSize="20" font-bold="0" font-underline="0" font-alignment="1" strokeStyle="0" markerStart="0" markerEnd="0" shadowEnabled="0" shadowOffsetX="0" shadowOffsetY="2" shadowBlur="4" shadowOpacity="160" blurEnabled="0" blurRadius="4" transform="matrix(1,0,0,1,154.6,255.646)" pers-center="0,0" pers-size="0,0" pers-start="0,0" pers-end="0,0" locked="0" mesh="" flag=""/>
            <path id="shapePath24" d="M175.6,255.646 C175.6,267.244 166.198,276.646 154.6,276.646 C143.002,276.646 133.6,267.244 133.6,255.646 C133.6,244.048 143.002,234.646 154.6,234.646 C166.198,234.646 175.6,244.048 175.6,255.646 Z" style="stroke:#404040;stroke-opacity:1;stroke-width:4;stroke-linejoin:round;stroke-miterlimit:2;stroke-linecap:round;fill-rule:evenodd;fill:#ffffff;fill-opacity:1;"/>
        </g>
        <g id="Shape25">
            <desc shapeID="25" type="0" basicInfo-basicType="0" basicInfo-roundedRectRadius="12" basicInfo-polygonSides="6" basicInfo-starPoints="5" bounding="rect(-10.85,-12.85,21.7,25.7)" text="" font-familyName="" font-pixelSize="20" font-bold="0" font-underline="0" font-alignment="1" strokeStyle="0" markerStart="0" markerEnd="0" shadowEnabled="0" shadowOffsetX="0" shadowOffsetY="2" shadowBlur="4" shadowOpacity="160" blurEnabled="0" blurRadius="4" transform="matrix(1,0,0,1,594.65,120.295)" pers-center="0,0" pers-size="0,0" pers-start="0,0" pers-end="0,0" locked="0" mesh="" flag=""/>
            <path id="shapePath25" d="M594.6,130.945 L594.6,107.445 M605.5,122.245 L594.6,133.145 L583.8,122.245 " style="stroke:#404040;stroke-opacity:1;stroke-width:4;stroke-linejoin:round;stroke-miterlimit:2;stroke-linecap:round;fill:none;"/>
        </g>
        <g id="Shape26">
            <desc shapeID="26" type="0" basicInfo-basicType="0" basicInfo-roundedRectRadius="12" basicInfo-polygonSides="6" basicInfo-starPoints="5" bounding="rect(-70.8,-25,141.6,50)" text="" font-familyName="" font-pixelSize="20" font-bold="0" font-underline="0" font-alignment="1" strokeStyle="0" markerStart="0" markerEnd="0" shadowEnabled="0" shadowOffsetX="0" shadowOffsetY="2" shadowBlur="4" shadowOpacity="160" blurEnabled="0" blurRadius="4" transform="matrix(1,0,0,1,595.6,60.4452)" pers-center="0,0" pers-size="0,0" pers-start="0,0" pers-end="0,0" locked="0" mesh="" flag=""/>
            <path id="shapePath26" d="M524.8,35.4452 L666.4,35.4452 L666.4,85.4452 L524.8,85.4452 L524.8,35.4452 Z" style="stroke:#404040;stroke-opacity:1;stroke-width:4;stroke-linejoin:round;stroke-miterlimit:2;stroke-linecap:round;fill-rule:nonzero;fill:#b18be8;fill-opacity:1;"/>
        </g>
        <g id="Shape27">
            <desc shapeID="27" type="0" basicInfo-basicType="0" basicInfo-roundedRectRadius="12" basicInfo-polygonSides="6" basicInfo-starPoints="5" bounding="rect(-50.1,-5.55,100.2,11.1)" text="" font-familyName="" font-pixelSize="20" font-bold="0" font-underline="0" font-alignment="1" strokeStyle="0" markerStart="0" markerEnd="0" shadowEnabled="0" shadowOffsetX="0" shadowOffsetY="2" shadowBlur="4" shadowOpacity="160" blurEnabled="0" blurRadius="4" transform="matrix(1,0,0,1,596.5,61.1952)" pers-center="0,0" pers-size="0,0" pers-start="0,0" pers-end="0,0" locked="0" mesh="" flag=""/>
            <path id="shapePath27" d="M552.6,58.7452 C552.5,57.9452 551.8,56.9452 550.4,56.9452 C549.2,56.9452 548.3,57.7452 548.3,58.7452 C548.3,59.5452 548.8,60.1452 549.7,60.2452 L551.3,60.5452 C553.1,60.9452 554.1,62.0452 554.1,63.5452 C554.1,65.1452 552.7,66.6452 550.4,66.6452 C547.8,66.6452 546.6,65.0452 546.4,63.4452 L547.8,63.0452 C547.9,64.2452 548.7,65.3452 550.3,65.3452 C551.8,65.3452 552.5,64.5452 552.5,63.6452 C552.5,62.8452 552,62.2452 550.9,62.0452 L549.4,61.7452 C547.9,61.4452 546.8,60.4452 546.8,58.8452 C546.8,57.1452 548.3,55.6452 550.3,55.6452 C552.7,55.6452 553.7,57.1452 553.9,58.2452 L552.6,58.7452 M563.3,62.8452 C563.3,65.0452 561.8,66.6452 559.6,66.6452 C557.4,66.6452 555.9,65.0452 555.9,62.8452 C555.9,60.6452 557.4,59.0452 559.6,59.0452 C561.8,59.0452 563.3,60.6452 563.3,62.8452 M561.8,62.8452 C561.8,61.1452 560.7,60.2452 559.6,60.2452 C558.5,60.2452 557.4,61.1452 557.4,62.8452 C557.4,64.5452 558.5,65.4452 559.6,65.4452 C560.7,65.4452 561.8,64.5452 561.8,62.8452 M565.8,66.5452 L565.8,59.3452 L567.1,59.3452 L567.1,60.3452 C567.6,59.5452 568.5,59.1452 569.3,59.1452 C570.2,59.1452 571.1,59.5452 571.5,60.5452 C572.1,59.5452 573,59.1452 573.9,59.1452 C575.2,59.1452 576.4,60.0452 576.4,61.8452 L576.4,66.5452 L575,66.5452 L575,62.0452 C575,61.1452 574.5,60.4452 573.5,60.4452 C572.5,60.4452 571.8,61.2452 571.8,62.2452 L571.8,66.6452 L570.4,66.6452 L570.4,62.1452 C570.4,61.2452 570,60.5452 568.9,60.5452 C567.9,60.5452 567.2,61.3452 567.2,62.3452 L567.2,66.6452 L565.8,66.6452 L565.8,66.5452 M585.7,64.4452 C585.3,65.7452 584.1,66.7452 582.5,66.7452 C580.6,66.7452 578.9,65.3452 578.9,62.8452 C578.9,60.5452 580.5,59.0452 582.3,59.0452 C584.5,59.0452 585.8,60.5452 585.8,62.8452 L585.8,63.2452 L580.4,63.2452 C580.4,64.5452 581.4,65.4452 582.6,65.4452 C583.8,65.4452 584.4,64.8452 584.6,63.9452 L585.7,64.4452 M584.3,62.1452 C584.3,61.1452 583.6,60.3452 582.3,60.3452 C581.1,60.3452 580.4,61.2452 580.3,62.1452 L584.3,62.1452 M592.9,66.5452 L592.9,55.9452 L599.4,55.9452 L599.4,57.3452 L594.4,57.3452 L594.4,60.7452 L598.9,60.7452 L598.9,62.1452 L594.4,62.1452 L594.4,66.6452 L592.9,66.6452 L592.9,66.5452 M607.6,64.4452 C607.2,65.7452 606,66.7452 604.4,66.7452 C602.5,66.7452 600.8,65.3452 600.8,62.8452 C600.8,60.5452 602.4,59.0452 604.2,59.0452 C606.4,59.0452 607.7,60.5452 607.7,62.8452 L607.7,63.2452 L602.3,63.2452 C602.3,64.5452 603.3,65.4452 604.5,65.4452 C605.7,65.4452 606.3,64.8452 606.5,63.9452 L607.6,64.4452 M606.1,62.1452 C606.1,61.1452 605.4,60.3452 604.1,60.3452 C602.9,60.3452 602.2,61.2452 602.1,62.1452 L606.1,62.1452 M611.9,62.3452 L613.8,62.0452 C614.2,61.9452 614.4,61.7452 614.4,61.5452 C614.4,60.8452 613.9,60.2452 612.8,60.2452 C611.8,60.2452 611.3,60.8452 611.2,61.7452 L609.8,61.4452 C610,60.0452 611.2,59.1452 612.8,59.1452 C615,59.1452 615.8,60.3452 615.8,61.7452 L615.8,65.3452 C615.8,65.9452 615.9,66.3452 615.9,66.5452 L614.5,66.5452 C614.5,66.3452 614.4,66.0452 614.4,65.5452 C614.1,66.0452 613.4,66.7452 612.1,66.7452 C610.6,66.7452 609.7,65.7452 609.7,64.5452 C609.7,63.2452 610.7,62.5452 611.9,62.3452 M614.4,63.4452 L614.4,63.0452 L612.2,63.3452 C611.6,63.4452 611.1,63.7452 611.1,64.4452 C611.1,64.9452 611.5,65.4452 612.3,65.4452 C613.5,65.5452 614.4,64.9452 614.4,63.4452 M620.6,59.2452 L622.2,59.2452 L622.2,60.5452 L620.6,60.5452 L620.6,64.3452 C620.6,65.0452 620.9,65.3452 621.6,65.3452 C621.8,65.3452 622,65.3452 622.2,65.2452 L622.2,66.4452 C622.1,66.4452 621.7,66.5452 621.2,66.5452 C620,66.5452 619.2,65.7452 619.2,64.4452 L619.2,60.4452 L617.8,60.4452 L617.8,59.1452 L618.2,59.1452 C619,59.1452 619.3,58.6452 619.3,58.0452 L619.3,57.0452 L620.6,57.0452 L620.6,59.2452 M627.5,66.7452 C625.8,66.7452 624.8,65.4452 624.8,63.8452 L624.8,59.3452 L626.2,59.3452 L626.2,63.6452 C626.2,64.6452 626.6,65.5452 627.8,65.5452 C628.9,65.5452 629.5,64.7452 629.5,63.7452 L629.5,59.3452 L630.9,59.3452 L630.9,65.2452 C630.9,65.8452 630.9,66.3452 631,66.5452 L629.6,66.5452 C629.6,66.3452 629.5,65.9452 629.5,65.6452 C629.2,66.3452 628.3,66.7452 627.5,66.7452 M638.1,60.7452 L637.5,60.7452 C636.3,60.7452 635.5,61.3452 635.5,62.9452 L635.5,66.5452 L634.1,66.5452 L634.1,59.3452 L635.5,59.3452 L635.5,60.6452 C636,59.5452 636.9,59.2452 637.7,59.2452 L638.2,59.2452 L638.2,60.7452 L638.1,60.7452 M646.5,64.4452 C646.1,65.7452 644.9,66.7452 643.3,66.7452 C641.4,66.7452 639.7,65.3452 639.7,62.8452 C639.7,60.5452 641.3,59.0452 643.1,59.0452 C645.3,59.0452 646.6,60.5452 646.6,62.8452 L646.6,63.2452 L641.2,63.2452 C641.2,64.5452 642.2,65.4452 643.4,65.4452 C644.6,65.4452 645.2,64.8452 645.4,63.9452 L646.5,64.4452 M645.1,62.1452 C645.1,61.1452 644.4,60.3452 643.1,60.3452 C641.9,60.3452 641.2,61.2452 641.1,62.1452 L645.1,62.1452 Z" style="stroke:none;fill-rule:nonzero;fill:#404040;fill-opacity:1;"/>
        </g>
        <g id="Shape28">
            <desc shapeID="28" type="0" basicInfo-basicType="0" basicInfo-roundedRectRadius="12" basicInfo-polygonSides="6" basicInfo-starPoints="5" bounding="rect(-270.7,0,541.4,0)" text="" font-familyName="" font-pixelSize="20" font-bold="0" font-underline="0" font-alignment="1" strokeStyle="0" markerStart="0" markerEnd="0" shadowEnabled="0" shadowOffsetX="0" shadowOffsetY="2" shadowBlur="4" shadowOpacity="160" blurEnabled="0" blurRadius="4" transform="matrix(1,0,0,1,395.5,424.111)" pers-center="0,0" pers-size="0,0" pers-start="0,0" pers-end="0,0" locked="0" mesh="" flag=""/>
            <path id="shapePath28" d="M124.8,424.111 L666.2,424.111 " style="stroke:#cccccc;stroke-opacity:1;stroke-width:1;stroke-linejoin:round;stroke-miterlimit:2;stroke-linecap:round;fill:none;"/>
        </g>
    </g>
</svg>
