<?xml version="1.0" encoding="utf-8"?>
<!-- Generator: Adobe Illustrator 18.0.0, SVG Export Plug-In . SVG Version: 6.00 Build 0)  -->
<!DOCTYPE svg PUBLIC "-//W3C//DTD SVG 1.1//EN" "http://www.w3.org/Graphics/SVG/1.1/DTD/svg11.dtd">
<svg version="1.1" id="yostudio_logo_svg" xmlns="http://www.w3.org/2000/svg" xmlns:xlink="http://www.w3.org/1999/xlink" x="0px"
	 y="0px" width="506px" height="363.9px" viewBox="0 0 506 363.9" style="enable-background:new 0 0 506 363.9;"
	 xml:space="preserve">
<g>
	<path style="fill:#FF0000;" d="M61.7,74.2c-7.4,9.2-13.2,19.5-18.2,30.1C23.8,146.7,29.3,215.6,54,255.2
		c24.6,39.4,62.8,68.5,104.5,87.8c0.4,0.2,1.1-0.3,0.8-0.6c-6.5-8.2-9.4-24.9-8-33.1c0.1-0.3,0.4-0.5,0.7-0.5
		c53,9.2,106.8,17.6,160.3,12.1c53.7-5.4,107.7-26.2,143.2-66.8c22.1-25.3,26.9-58.2,16-90c-9.3-27.3-27.7-42.1-42.7-57.1
		c-43.1-43.4-136.5-76.6-198.7-83.5C168.7,16.6,102.2,24.8,61.7,74.2"/>
	<g>
		<path style="fill:#FF0000;" d="M57.4,69.9c-16,20.2-26.3,43.9-30,69.4c-3.5,24.6-2,49.8,3.5,74c11.6,50.4,48.4,89.5,91,116.7
			c6.3,4,12.7,7.7,19.3,11.2c5.5,2.9,13.2,8.5,19.5,7.5c2-0.3,3.7-2.4,4.2-4.2c0.9-3.5-0.8-5.4-2.5-8.2c-1.6-2.7-2.6-5.7-3.5-8.6
			c-0.9-3-1.5-6.2-1.8-9.3c-0.1-1.2-0.2-2.5-0.2-3.8c0-0.9,0.7-4.1-0.2-2.7c-1.2,0.9-2.4,1.8-3.6,2.8c-2.8,0.6,3,0.9,3.1,0.9
			c1.9,0.3,3.9,0.7,5.8,1c3.9,0.7,7.8,1.3,11.7,1.9c8.4,1.4,16.9,2.7,25.3,3.9c16.1,2.3,32.3,4.1,48.6,5.2
			c30.5,2.1,61.4,1.1,91.5-4.6c26-5,51.4-14,74.4-27.1c22.4-12.8,44.5-30.8,57.6-53.4c13.5-23.3,14.8-51.4,7.2-76.8
			c-7.3-24.4-23.8-42-41.6-59.4c-34.1-33.3-77.3-54-122-69.3C271.8,22.5,226.5,13.7,181,15.7C134.6,17.7,87.9,33.2,57.4,69.9
			c-4.9,5.9,3.5,14.4,8.5,8.5c32.4-39.1,82.6-51.5,131.5-51c48,0.5,95.5,13,139.8,30.8c22.4,9,44.3,20.1,64.2,33.8
			c8.7,6,16.7,12.7,24.1,20.1c7.9,7.9,16.2,15.5,23.5,24.1c16.9,20.1,25.3,47.7,21.1,73.7c-4.3,27-23.1,47.6-44.2,63.5
			c-44.2,33.2-100.6,43.8-154.7,43.2c-32.3-0.4-64.4-4.7-96.2-10c-3.9-0.6-7.8-1.3-11.7-2c-3.6-0.6-7.6-1.9-11.3-1.9
			c-6.1,0-6.9,5.9-7,10.6c-0.3,10.7,2.7,23.3,9.1,31.9c-0.2-1.5-0.4-3.1-0.6-4.6c0,0.2-0.1,0.3-0.1,0.5c1.4-1.4,2.8-2.8,4.2-4.2
			c-0.2,0-0.4,0.1-0.7,0.1c1.5,0.2,3.1,0.4,4.6,0.6c-24.1-11.2-46.8-25.4-66.5-43.2c-18.4-16.6-35.3-36.9-44.8-60
			C32,190.2,31.9,135.3,56,93.2c2.9-5.2,6.3-10.1,10-14.8C70.7,72.4,62.2,63.9,57.4,69.9L57.4,69.9z"/>
	</g>
</g>
<g>
	<g>
		<path style="fill:#FFFFFF;" d="M84,85.5c6.3,10.8,14.3,20.8,22.1,30.5c2.6,3.2,8,2.7,10.6,0c3.1-3.1,2.6-7.4,0-10.6
			c-7-8.8-14.1-17.7-19.8-27.5C92.1,69.6,79.1,77.2,84,85.5L84,85.5z"/>
	</g>
</g>
<g>
	<g>
		<path style="fill:#FFFFFF;" d="M119.9,74.3c-4.9,10.9-10,21.8-14.9,32.7c-1.7,3.7-1.1,8,2.7,10.3c3.2,1.9,8.6,1,10.3-2.7
			c4.9-10.9,10-21.8,14.9-32.7c1.7-3.7,1.1-8-2.7-10.3C126.9,69.7,121.6,70.6,119.9,74.3L119.9,74.3z"/>
	</g>
</g>
<g>
	<g>
		<path style="fill:#FFFFFF;" d="M103.9,110.8c1.5,13.2,3.1,26.4,4.6,39.5c0.5,4.1,3.1,7.5,7.5,7.5c3.7,0,8-3.4,7.5-7.5
			c-1.5-13.2-3.1-26.4-4.6-39.5c-0.5-4.1-3.1-7.5-7.5-7.5C107.7,103.3,103.4,106.7,103.9,110.8L103.9,110.8z"/>
	</g>
</g>
<g>
	<g>
		<path style="fill:#FFFFFF;" d="M176.1,97c-16.7-6.5-31.1,8.2-35.1,23.2c-1.9,7.2-1.1,14.7,2.2,21.2c3.6,7.1,11.2,10.2,18.7,11.1
			c15.5,2,27.1-12,31.3-25.2c2.2-7,1.7-14.8-1.7-21.3c-3.4-6.4-10.7-8.8-17.4-9.4c-9.6-0.8-9.6,14.2,0,15c6.3,0.6,5.9,6.7,4.6,11.7
			c-1.8,6.6-6.8,13.6-14.1,14.2c-17.4,1.4-8.6-32.4,7.5-26.2c3.8,1.5,8.2-1.6,9.2-5.2C182.5,102,179.9,98.5,176.1,97L176.1,97z"/>
	</g>
</g>
<g>
	<g>
		<path style="fill:#FFFFFF;" d="M141.8,189.6c-8.2-7.8-21.2-9.7-30.8-3.3c-11.6,7.6-11.7,22.6-4.1,32.9c3.7,5.1,8.2,9.2,13.4,12.8
			c3.3,2.3,10.4,5.2,9.4,10.4c-0.6,3-5.4,9.1-9,7.5c-4.4-2-8.2-4.3-9.4-9.2c-2.3-9.4-16.7-5.4-14.5,4c2.6,11,13.8,20,25.1,20.5
			c12.9,0.5,24.8-14.8,22.5-27c-2.6-13.4-16.6-17.4-24.7-26.8c-3.3-3.9-4.7-8.6-0.8-12.5c3.2-3.2,9.4-1.4,12.3,1.3
			C138.1,206.9,148.8,196.3,141.8,189.6L141.8,189.6z"/>
	</g>
</g>
<g>
	<g>
		<path style="fill:#FFFFFF;" d="M181.1,202.2c-3.7,6.6-7.1,13.5-10,20.5c-3,7.3-6.1,15.4-4.8,23.4c1,6,5,13.4,10.8,16.1
			c6.5,2.9,15.1,2.1,21.4-1c8.7-4.2,1.1-17.2-7.6-13c-1.7,0.8-6.8,0.9-7.4,0.3c-3.3-3.1-2.6-7.9-1.6-11.7
			c2.5-9.5,7.3-18.6,12.1-27.1C198.8,201.3,185.9,193.8,181.1,202.2L181.1,202.2z"/>
	</g>
</g>
<g>
	<g>
		<path style="fill:#FFFFFF;" d="M167.8,228.9c9-1.1,17.9-1.1,26.9-0.2c4.1,0.4,7.5-3.7,7.5-7.5c0-4.4-3.4-7.1-7.5-7.5
			c-9-0.9-17.9-0.8-26.9,0.2c-4.1,0.5-7.5,3-7.5,7.5C160.3,225.1,163.8,229.4,167.8,228.9L167.8,228.9z"/>
	</g>
</g>
<g>
	<g>
		<path style="fill:#FFFFFF;" d="M217.2,220.1c0.6,15.1,2.1,45.8,23.9,44c19.9-1.7,21.2-26.1,19.1-41.3c-1.2-8.4-15.1-6.3-14.7,2
			c0.6,12.2,3.3,27.2,17.9,28.6c4.1,0.4,7.5-3.7,7.5-7.5c0-4.4-3.4-7.1-7.5-7.5c-0.1,0-1.5-2.9-1.8-3.7c-1-3.1-1-6.6-1.2-9.9
			c-4.9,0.7-9.8,1.3-14.7,2c0.7,5,1.9,21.7-5.8,22.4c-4.1,0.4-4.6-6.8-5.2-9.6c-1.5-6.4-2.2-12.9-2.4-19.5
			C231.9,210.4,216.9,210.4,217.2,220.1L217.2,220.1z"/>
	</g>
</g>
<g>
	<g>
		<path style="fill:#FFFFFF;" d="M313.8,190.1c-2.1,18.9-2.7,37.9-1.8,56.9c0.5,9.6,15.5,9.7,15,0c-0.9-19-0.3-38,1.8-56.9
			c0.4-4.1-3.7-7.5-7.5-7.5C316.8,182.6,314.2,186.1,313.8,190.1L313.8,190.1z"/>
	</g>
</g>
<g>
	<g>
		<path style="fill:#FFFFFF;" d="M320.6,221.3c-14.6-12.5-37.2-3.2-37.2,16.5c0,19.7,24.6,27.9,37.9,14.7
			c6.9-6.8-3.7-17.4-10.6-10.6c-4.3,4.3-11.9,2.3-12.3-4.1c-0.4-6.1,6.8-10,11.6-5.9C317.3,238.2,328,227.6,320.6,221.3L320.6,221.3
			z"/>
	</g>
</g>
<g>
	<g>
		<path style="fill:#FFFFFF;" d="M352.1,213.5c2.3,1.6,4.6,3.2,6.9,4.8c3.4,2.3,8.3,0.6,10.3-2.7c2.2-3.7,0.7-7.9-2.7-10.3
			c-2.3-1.6-4.6-3.2-6.9-4.8c-3.4-2.3-8.3-0.6-10.3,2.7C347.2,206.9,348.7,211.1,352.1,213.5L352.1,213.5z"/>
	</g>
</g>
<g>
	<g>
		<path style="fill:#FFFFFF;" d="M345.7,227.9c0.3,8.1,0.7,16.3,1,24.4c0.4,9.6,15.4,9.7,15,0c-0.3-8.1-0.7-16.3-1-24.4
			C360.3,218.3,345.3,218.2,345.7,227.9L345.7,227.9z"/>
	</g>
</g>
<g>
	<g>
		<path style="fill:#FFFFFF;" d="M396.6,209.9c-25.1-1.2-36.1,43.4-7.7,47.1c12.1,1.6,21.5-7,25-17.9c1.9-5.8,1.7-13-0.4-18.8
			c-1.2-3.4-3.3-5.7-6.1-7.8c-2.4-1.8-6.1-1.5-8.9-2.3c-9.3-2.7-13.3,11.8-4,14.5c1.7,0.5,3.3,0.7,5,1c1.9,0.3-0.9-2.2,0,0.2
			c0.9,2.4,0.7,5.4,0.2,7.9c-0.9,4.5-3.6,8.4-8.5,8.5c-5,0.2-5-4.5-3.9-8.2c1.3-4.7,4-9.4,9.2-9.1
			C406.2,225.4,406.2,210.4,396.6,209.9L396.6,209.9z"/>
	</g>
</g>
</svg>
